<?xml version="1.0" standalone="no"?>
 <!DOCTYPE svg PUBLIC "-//W3C//DTD SVG 1.1//EN" 
 "http://www.w3.org/Graphics/SVG/1.1/DTD/svg11.dtd"> 
<svg
  xmlns:svg="http://www.w3.org/2000/svg"
  xmlns="http://www.w3.org/2000/svg"
  xmlns:xlink="http://www.w3.org/1999/xlink"
  version="1.1"
  width="297.0022mm" height="210.0072mm" viewBox="0.0000 0.0000 297.0022 210.0072">
<title>SVG Image created as NewsBox-Edge_Cuts.svg date 2024/03/06 20:28:21 </title>
  <desc>Image generated by PCBNEW </desc>
<g style="fill:#000000; fill-opacity:1.0000;stroke:#000000; stroke-opacity:1.0000;
stroke-linecap:round; stroke-linejoin:round;"
 transform="translate(0 0) scale(1 1)">
</g>
<g style="fill:none; 
stroke:#000000; stroke-width:0.1000; stroke-opacity:1; 
stroke-linecap:round; stroke-linejoin:round;">
<path d="M199.6440 54.8640
L199.6440 97.2820
" />
<path d="M117.0940 97.2820
L117.0940 54.8640
" />
<path d="M199.6440 97.2820
L117.0940 97.2820
" />
<path d="M117.0940 54.8640
L199.6440 54.8640
" />
<path style="fill:#000000; fill-opacity:1.0000; stroke:none;fill-rule:evenodd;"
d="M 158.3300,66.8900
156.6300,66.8900
156.6300,65.1900
158.3300,65.1900
Z" /> 
</g>
<g style="fill:#000000; fill-opacity:1.0000; stroke:none;">
<circle cx="160.0200" cy="66.0400" r="0.8500" /> 
<circle cx="162.5600" cy="66.0400" r="0.8500" /> 
<circle cx="165.1000" cy="66.0400" r="0.8500" /> 
<circle cx="167.6400" cy="66.0400" r="0.8500" /> 
<circle cx="170.1800" cy="66.0400" r="0.8500" /> 
<circle cx="172.7200" cy="66.0400" r="0.8500" /> 
<circle cx="175.2600" cy="66.0400" r="0.8500" /> 
<circle cx="177.8000" cy="66.0400" r="0.8500" /> 
<circle cx="180.3400" cy="66.0400" r="0.8500" /> 
<circle cx="182.8800" cy="66.0400" r="0.8500" /> 
<circle cx="185.4200" cy="66.0400" r="0.8500" /> 
<circle cx="187.9600" cy="66.0400" r="0.8500" /> 
<circle cx="190.5000" cy="66.0400" r="0.8500" /> 
<circle cx="193.0400" cy="66.0400" r="0.8500" /> 
<path style="fill:#000000; fill-opacity:1.0000; stroke:none;fill-rule:evenodd;"
d="M 139.1530,67.9310
137.4530,67.9310
137.4530,66.2310
139.1530,66.2310
Z" /> 
<circle cx="140.8430" cy="67.0810" r="0.8500" /> 
<path style="fill:#000000; fill-opacity:1.0000; stroke:none;fill-rule:evenodd;"
d="M 192.1900,90.5900
193.8900,90.5900
193.8900,92.2900
192.1900,92.2900
Z" /> 
<circle cx="190.5000" cy="91.4400" r="0.8500" /> 
<circle cx="187.9600" cy="91.4400" r="0.8500" /> 
<circle cx="185.4200" cy="91.4400" r="0.8500" /> 
<circle cx="182.8800" cy="91.4400" r="0.8500" /> 
<circle cx="180.3400" cy="91.4400" r="0.8500" /> 
<circle cx="177.8000" cy="91.4400" r="0.8500" /> 
<circle cx="175.2600" cy="91.4400" r="0.8500" /> 
<circle cx="172.7200" cy="91.4400" r="0.8500" /> 
<circle cx="170.1800" cy="91.4400" r="0.8500" /> 
<circle cx="167.6400" cy="91.4400" r="0.8500" /> 
<circle cx="165.1000" cy="91.4400" r="0.8500" /> 
<circle cx="162.5600" cy="91.4400" r="0.8500" /> 
<circle cx="160.0200" cy="91.4400" r="0.8500" /> 
<circle cx="157.4800" cy="91.4400" r="0.8500" /> 
<path style="fill:#000000; fill-opacity:1.0000; stroke:none;fill-rule:evenodd;"
d="M 192.1900,85.5100
193.8900,85.5100
193.8900,87.2100
192.1900,87.2100
Z" /> 
<circle cx="190.5000" cy="86.3600" r="0.8500" /> 
<circle cx="187.9600" cy="86.3600" r="0.8500" /> 
<circle cx="185.4200" cy="86.3600" r="0.8500" /> 
<circle cx="182.8800" cy="86.3600" r="0.8500" /> 
<circle cx="180.3400" cy="86.3600" r="0.8500" /> 
<circle cx="177.8000" cy="86.3600" r="0.8500" /> 
<circle cx="175.2600" cy="86.3600" r="0.8500" /> 
<circle cx="172.7200" cy="86.3600" r="0.8500" /> 
<circle cx="170.1800" cy="86.3600" r="0.8500" /> 
<circle cx="167.6400" cy="86.3600" r="0.8500" /> 
<circle cx="165.1000" cy="86.3600" r="0.8500" /> 
<circle cx="162.5600" cy="86.3600" r="0.8500" /> 
<circle cx="160.0200" cy="86.3600" r="0.8500" /> 
<circle cx="157.4800" cy="86.3600" r="0.8500" /> 
<circle cx="154.9400" cy="86.3600" r="0.8500" /> 
<circle cx="152.4000" cy="86.3600" r="0.8500" /> 
<circle cx="149.8600" cy="86.3600" r="0.8500" /> 
<circle cx="147.3200" cy="86.3600" r="0.8500" /> 
<path style="fill:#000000; fill-opacity:1.0000; stroke:none;fill-rule:evenodd;"
d="M 126.9210,67.7400
126.9210,69.4400
125.2210,69.4400
125.2210,67.7400
Z" /> 
<circle cx="126.0710" cy="66.0500" r="0.8500" /> 
<circle cx="126.0710" cy="63.5100" r="0.8500" /> 
<path style="fill:#000000; fill-opacity:1.0000; stroke:none;fill-rule:evenodd;"
d="M 126.9610,84.2400
126.9610,85.9400
125.2610,85.9400
125.2610,84.2400
Z" /> 
<circle cx="126.1110" cy="82.5500" r="0.8500" /> 
<circle cx="126.1110" cy="80.0100" r="0.8500" /> 
<circle cx="126.1110" cy="77.4700" r="0.8500" /> 
<path style="fill:#000000; fill-opacity:1.0000; stroke:none;fill-rule:evenodd;"
d="M 139.1730,61.8100
137.4730,61.8100
137.4730,60.1100
139.1730,60.1100
Z" /> 
<circle cx="140.8630" cy="60.9600" r="0.8500" /> 
<circle cx="140.8430" cy="83.3120" r="0.8000" /> 
</g>
<g style="fill:#000000; fill-opacity:1.0000; stroke:none;">
<circle cx="140.8430" cy="73.1520" r="0.8000" /> 
<path style="fill:#000000; fill-opacity:1.0000; stroke:none;fill-rule:evenodd;"
d="M 148.1550,61.8100
146.4550,61.8100
146.4550,60.1100
148.1550,60.1100
Z" /> 
<circle cx="149.8450" cy="60.9600" r="0.8500" /> 
<circle cx="152.3850" cy="60.9600" r="0.8500" /> 
<circle cx="154.9250" cy="60.9600" r="0.8500" /> 
<circle cx="157.4650" cy="60.9600" r="0.8500" /> 
<circle cx="160.0050" cy="60.9600" r="0.8500" /> 
<circle cx="162.5450" cy="60.9600" r="0.8500" /> 
<circle cx="165.0850" cy="60.9600" r="0.8500" /> 
<circle cx="167.6250" cy="60.9600" r="0.8500" /> 
<circle cx="170.1650" cy="60.9600" r="0.8500" /> 
<circle cx="172.7050" cy="60.9600" r="0.8500" /> 
<circle cx="175.2450" cy="60.9600" r="0.8500" /> 
<circle cx="177.7850" cy="60.9600" r="0.8500" /> 
<circle cx="180.3250" cy="60.9600" r="0.8500" /> 
<circle cx="182.8650" cy="60.9600" r="0.8500" /> 
<circle cx="185.4050" cy="60.9600" r="0.8500" /> 
<circle cx="187.9450" cy="60.9600" r="0.8500" /> 
<circle cx="190.4850" cy="60.9600" r="0.8500" /> 
<circle cx="193.0250" cy="60.9600" r="0.8500" /> 
</g>
<g style="fill:none; 
stroke:#000000; stroke-width:0.8000; stroke-opacity:1; 
stroke-linecap:round; stroke-linejoin:round;">
<path d="M185.4200 66.0400
L185.4200 63.5000
" />
<path d="M185.4200 63.5000
L184.9120 62.9920
" />
<path d="M184.9120 62.9920
L183.5150 62.9920
" />
<path d="M183.5150 62.9920
L182.8650 62.3420
" />
<path d="M182.8650 62.3420
L182.8650 60.9600
" />
<path d="M182.8800 66.0400
L182.8800 64.7700
" />
<path d="M181.7370 63.6270
L179.0700 63.6270
" />
<path d="M179.0700 63.6270
L177.7850 62.3420
" />
<path d="M182.8800 64.7700
L181.7370 63.6270
" />
<path d="M177.7850 62.3420
L177.7850 60.9600
" />
<path d="M126.0710 63.5100
L130.3120 63.5100
" />
<path d="M130.3120 63.5100
L132.3340 65.5320
" />
<path d="M132.3340 73.1520
L134.3660 75.1840
" />
<path d="M134.3660 75.1840
L142.3670 75.1840
" />
<path d="M132.3340 65.5320
L132.3340 73.1520
" />
<path d="M170.1650 59.4210
L170.1650 60.9600
" />
<path d="M142.3670 75.1840
L143.7640 73.7870
" />
<path d="M143.7640 73.7870
L143.7640 59.9440
" />
<path d="M143.7640 59.9440
L145.5420 58.1660
" />
<path d="M145.5420 58.1660
L168.9100 58.1660
" />
<path d="M168.9100 58.1660
L170.1650 59.4210
" />
<path d="M140.8630 60.9600
L140.8630 59.1620
" />
<path d="M140.8630 59.1620
L143.3830 56.6420
" />
<path d="M143.3830 56.6420
L175.8950 56.6420
" />
<path d="M175.8950 56.6420
L177.7850 58.5320
" />
<path d="M177.7850 58.5320
L177.7850 60.9600
" />
<path d="M140.8430 67.0810
L140.8430 73.1520
" />
<path d="M190.5000 86.3600
L190.5000 84.2010
" />
<path d="M131.3180 85.0900
L126.1110 85.0900
" />
<path d="M143.8910 81.2800
L133.0960 81.2800
" />
<path d="M190.5000 84.2010
L190.1190 83.8200
" />
<path d="M133.0960 81.2800
L131.9530 82.4230
" />
<path d="M190.1190 83.8200
L146.4310 83.8200
" />
<path d="M146.4310 83.8200
L143.8910 81.2800
" />
<path d="M131.9530 82.4230
L131.9530 84.4550
" />
<path d="M131.9530 84.4550
L131.3180 85.0900
" />
<path d="M126.1110 82.5500
L128.9050 82.5500
" />
<path d="M148.0820 81.7880
L191.6430 81.7880
" />
<path d="M131.6990 79.7560
L146.0500 79.7560
" />
<path d="M146.0500 79.7560
L148.0820 81.7880
" />
<path d="M128.9050 82.5500
L131.6990 79.7560
" />
<path d="M193.0400 83.1850
L193.0400 86.3600
" />
<path d="M191.6430 81.7880
L193.0400 83.1850
" />
<path d="M126.1110 80.0100
L128.3970 80.0100
" />
<path d="M164.4650 78.2320
L167.6400 75.0570
" />
<path d="M128.3970 80.0100
L130.1750 78.2320
" />
<path d="M130.1750 78.2320
L164.4650 78.2320
" />
<path d="M167.6400 75.0570
L167.6400 66.0400
" />
<path d="M126.1110 77.4700
L128.1430 77.4700
" />
<path d="M128.1430 77.4700
L128.9050 76.7080
" />
<path d="M128.9050 76.7080
L156.7180 76.7080
" />
<path d="M160.0200 73.4060
L160.0200 66.0400
" />
<path d="M156.7180 76.7080
L160.0200 73.4060
" />
<path d="M138.3230 60.9600
L138.3230 67.0610
" />
<path d="M138.3230 67.0610
L138.3030 67.0810
" />
<path d="M121.0310 68.5800
L121.0410 68.5900
" />
<path d="M121.0410 68.5900
L126.0710 68.5900
" />
<path d="M126.1110 82.5500
L124.5870 82.5500
" />
<path d="M124.5870 82.5500
L123.0630 81.0260
" />
<path d="M128.2700 73.9140
L129.5400 72.6440
" />
<path d="M129.5400 72.6440
L129.5400 66.8020
" />
<path d="M123.0630 81.0260
L123.0630 75.0570
" />
<path d="M123.0630 75.0570
L124.2060 73.9140
" />
<path d="M124.2060 73.9140
L128.2700 73.9140
" />
<path d="M129.5400 66.8020
L128.7880 66.0500
" />
<path d="M128.7880 66.0500
L126.0710 66.0500
" />
<path d="M121.0310 62.3570
L122.4280 60.9600
" />
<path d="M121.0310 68.5800
L121.0310 62.3570
" />
<path d="M122.4280 60.9600
L138.3230 60.9600
" />
<path d="M160.0200 66.0400
L160.0200 65.0240
" />
<path d="M160.0200 65.0240
L158.4960 63.5000
" />
<path d="M158.4960 63.5000
L153.1620 63.5000
" />
<path d="M153.1620 63.5000
L152.3850 62.7230
" />
<path d="M152.3850 62.7230
L152.3850 60.9600
" />
<path d="M167.6400 66.0400
L167.6400 64.5160
" />
<path d="M167.6400 64.5160
L166.6240 63.5000
" />
<path d="M166.6240 63.5000
L161.1630 63.5000
" />
<path d="M161.1630 63.5000
L160.0050 62.3420
" />
<path d="M160.0050 62.3420
L160.0050 60.9600
" />
<path d="M175.2600 66.0400
L175.2600 64.5160
" />
<path d="M175.2600 64.5160
L174.2440 63.5000
" />
<path d="M174.2440 63.5000
L171.3230 63.5000
" />
<path d="M171.3230 63.5000
L170.1650 62.3420
" />
<path d="M170.1650 62.3420
L170.1650 60.9600
" />
<path d="M194.4370 69.9770
L187.3250 69.9770
" />
<path d="M151.7650 89.4080
L153.2890 90.9320
" />
<path d="M196.2150 93.8530
L196.2150 71.7550
" />
<path d="M140.8430 86.8680
L143.3830 89.4080
" />
<path d="M143.3830 89.4080
L151.7650 89.4080
" />
<path d="M196.2150 71.7550
L194.4370 69.9770
" />
<path d="M153.2890 90.9320
L153.2890 93.7260
" />
<path d="M153.2890 93.7260
L154.4320 94.8690
" />
<path d="M154.4320 94.8690
L195.1990 94.8690
" />
<path d="M140.8430 83.3120
L140.8430 86.8680
" />
<path d="M195.1990 94.8690
L196.2150 93.8530
" />
<path d="M187.3250 69.9770
L185.4200 68.0720
" />
<path d="M185.4200 68.0720
L185.4200 66.0400
" />
<path d="M126.1110 85.0900
L124.5870 85.0900
" />
<path d="M124.5870 85.0900
L121.0310 81.5340
" />
<path d="M121.0310 81.5340
L121.0310 68.5800
" />
<path d="M190.5000 91.4400
L190.5000 86.3600
" />
<path d="M193.0400 91.4400
L193.0400 86.3600
" />
<path style="fill:#000000; fill-opacity:1.0000; stroke:none;fill-rule:evenodd;"
d="M 199.5870,54.8837
199.6328,54.9365
199.6440,54.9880
199.6440,97.1580
199.6243,97.2250
199.5715,97.2708
199.5200,97.2820
117.2180,97.2820
117.1510,97.2623
117.1052,97.2095
117.0940,97.1580
117.0940,81.6227
120.1305,81.6227
120.1651,81.7967
120.1651,81.7967
120.1889,81.8540
120.2330,81.9605
120.2330,81.9605
120.2921,82.0490
120.2921,82.0490
120.3315,82.1080
120.3315,82.1080
120.3315,82.1080
123.8875,85.6640
124.0130,85.7895
124.0130,85.7895
124.1604,85.8880
124.1605,85.8880
124.2834,85.9389
124.3243,85.9559
124.3243,85.9559
124.3243,85.9559
124.4983,85.9905
124.4983,85.9905
124.4983,85.9905
124.6596,85.9905
124.7266,86.0102
124.7724,86.0630
124.7757,86.0712
124.8172,86.1823
124.8172,86.1823
124.9035,86.2975
124.9035,86.2975
125.0187,86.3838
125.0187,86.3838
125.1535,86.4341
125.1535,86.4341
125.1604,86.4348
125.2131,86.4405
127.0089,86.4405
127.0685,86.4341
127.2033,86.3838
127.3185,86.2975
127.4048,86.1823
127.4263,86.1246
127.4463,86.0712
127.4881,86.0152
127.5536,85.9908
127.5624,85.9905
131.4067,85.9905
131.4067,85.9905
131.5807,85.9559
131.6626,85.9220
131.7445,85.8880
131.7445,85.8880
131.7446,85.8880
131.8330,85.8289
131.8330,85.8289
131.8330,85.8289
131.8920,85.7895
132.6525,85.0290
132.6725,84.9990
132.7510,84.8815
132.7856,84.7982
132.8189,84.7177
132.8535,84.5437
132.8535,84.3663
132.8535,82.8474
132.8732,82.7803
132.8898,82.7597
133.4327,82.2168
133.4940,82.1833
133.5204,82.1805
139.8360,82.1805
139.9030,82.2002
139.9487,82.2530
139.9587,82.3221
139.9297,82.3857
139.9236,82.3922
139.8430,82.4729
139.7124,82.6593
139.7124,82.6593
139.6163,82.8655
139.6163,82.8655
139.5574,83.0853
139.5574,83.0853
139.5375,83.3120
139.5375,83.3120
139.5574,83.5387
139.5574,83.5387
139.6163,83.7585
139.6163,83.7585
139.7124,83.9647
139.7124,83.9647
139.8430,84.1511
139.8430,84.1511
139.8430,84.1511
139.9062,84.2144
139.9397,84.2757
139.9425,84.3020
139.9425,86.9567
139.9771,87.1307
139.9771,87.1307
139.9771,87.1307
139.9884,87.1580
139.9884,87.1580
140.0450,87.2945
140.0450,87.2945
140.0634,87.3220
140.0634,87.3220
140.0634,87.3221
140.0707,87.3331
140.1435,87.4420
140.1435,87.4420
142.6835,89.9820
142.7571,90.0556
142.8090,90.1075
142.9564,90.2060
142.9565,90.2060
143.0205,90.2325
143.1203,90.2739
143.1203,90.2739
143.1203,90.2739
143.2943,90.3085
143.2943,90.3085
143.2943,90.3085
151.3406,90.3085
151.4077,90.3282
151.4283,90.3448
152.3522,91.2687
152.3857,91.3300
152.3885,91.3564
152.3885,93.8147
152.4231,93.9887
152.4231,93.9887
152.4570,94.0706
152.4570,94.0706
152.4910,94.1525
152.4910,94.1525
152.5501,94.2410
152.5501,94.2410
152.5895,94.3000
153.8580,95.5685
153.9170,95.6079
153.9170,95.6079
154.0054,95.6670
154.0055,95.6670
154.0874,95.7010
154.1693,95.7349
154.3433,95.7695
154.3433,95.7695
154.3433,95.7695
195.2877,95.7695
195.2877,95.7695
195.4617,95.7349
195.5436,95.7010
195.6255,95.6670
195.6255,95.6670
195.6256,95.6670
195.7140,95.6079
195.7140,95.6079
195.7140,95.6079
195.7730,95.5685
196.9145,94.4270
196.9539,94.3680
197.0130,94.2795
197.0656,94.1525
197.0656,94.1525
197.0809,94.1157
197.0809,94.1157
197.1155,93.9417
197.1155,93.7643
197.1155,71.6663
197.0809,71.4923
197.0153,71.3341
197.0137,71.3295
196.9145,71.1810
196.9145,71.1810
196.7890,71.0555
195.5310,69.7975
195.0110,69.2775
195.0110,69.2775
194.9366,69.2278
194.8635,69.1790
194.8635,69.1790
194.7816,69.1450
194.7816,69.1450
194.6997,69.1111
194.6997,69.1111
194.5257,69.0765
194.5257,69.0765
194.5257,69.0765
187.7494,69.0765
187.6823,69.0568
187.6617,69.0402
186.3568,67.7353
186.3233,67.6740
186.3205,67.6476
186.3205,67.1008
186.3402,67.0337
186.3568,67.0131
186.3997,66.9702
186.4585,66.9114
186.5884,66.7258
186.6430,66.6822
186.7125,66.6750
186.7749,66.7065
186.7916,66.7258
186.9215,66.9114
186.9215,66.9114
187.0886,67.0785
187.1746,67.1387
187.2822,67.2140
187.2822,67.2140
187.2822,67.2140
187.4963,67.3139
187.4963,67.3139
187.4963,67.3139
187.5513,67.3286
187.7246,67.3751
187.9010,67.3905
187.9600,67.3957
187.9600,67.3957
187.9600,67.3957
188.0190,67.3905
188.1954,67.3751
188.4237,67.3139
188.6378,67.2140
188.8314,67.0785
188.9985,66.9114
189.1284,66.7258
189.1830,66.6822
189.2525,66.6750
189.3149,66.7065
189.3316,66.7258
189.4615,66.9114
189.4615,66.9114
189.6286,67.0785
189.7146,67.1387
189.8222,67.2140
189.8222,67.2140
189.8222,67.2140
190.0363,67.3139
190.0363,67.3139
190.0363,67.3139
190.0913,67.3286
190.2646,67.3751
190.4410,67.3905
190.5000,67.3957
190.5000,67.3957
190.5000,67.3957
190.5590,67.3905
190.7354,67.3751
190.9637,67.3139
191.1778,67.2140
191.3714,67.0785
191.5385,66.9114
191.6684,66.7258
191.7230,66.6822
191.7925,66.6750
191.8549,66.7065
191.8716,66.7258
192.0015,66.9114
192.0015,66.9114
192.1686,67.0785
192.2546,67.1387
192.3622,67.2140
192.3622,67.2140
192.3622,67.2140
192.5763,67.3139
192.5763,67.3139
192.5763,67.3139
192.6313,67.3286
192.8046,67.3751
192.9810,67.3905
193.0400,67.3957
193.0400,67.3957
193.0400,67.3957
193.0990,67.3905
193.2754,67.3751
193.5037,67.3139
193.7178,67.2140
193.9114,67.0785
194.0785,66.9114
194.2140,66.7178
194.3139,66.5037
194.3751,66.2754
194.3957,66.0400
194.3751,65.8046
194.3166,65.5863
194.3139,65.5763
194.3139,65.5763
194.3139,65.5763
194.2140,65.3622
194.2084,65.3542
194.0785,65.1686
193.9114,65.0015
193.9114,65.0015
193.7178,64.8660
193.7178,64.8660
193.6893,64.8527
193.5037,64.7661
193.5037,64.7661
193.5037,64.7661
193.2754,64.7049
193.2754,64.7049
193.0400,64.6843
193.0400,64.6843
192.8046,64.7049
192.8046,64.7049
192.5763,64.7661
192.5763,64.7661
192.3622,64.8660
192.3622,64.8660
192.1686,65.0015
192.0015,65.1686
191.8716,65.3542
191.8170,65.3978
191.7475,65.4050
191.6851,65.3735
191.6684,65.3542
191.5385,65.1686
191.3714,65.0015
191.3714,65.0015
191.1778,64.8660
191.1778,64.8660
191.1493,64.8527
190.9637,64.7661
190.9637,64.7661
190.9637,64.7661
190.7354,64.7049
190.7354,64.7049
190.5000,64.6843
190.5000,64.6843
190.2646,64.7049
190.2646,64.7049
190.0363,64.7661
190.0363,64.7661
189.8222,64.8660
189.8222,64.8660
189.6286,65.0015
189.4615,65.1686
189.3316,65.3542
189.2770,65.3978
189.2075,65.4050
189.1451,65.3735
189.1284,65.3542
188.9985,65.1686
188.8314,65.0015
188.8314,65.0015
188.6378,64.8660
188.6378,64.8660
188.6093,64.8527
188.4237,64.7661
188.4237,64.7661
188.4237,64.7661
188.1954,64.7049
188.1954,64.7049
187.9600,64.6843
187.9600,64.6843
187.7246,64.7049
187.7246,64.7049
187.4963,64.7661
187.4963,64.7661
187.2822,64.8660
187.2822,64.8660
187.0886,65.0015
186.9215,65.1686
186.7916,65.3542
186.7370,65.3978
186.6675,65.4050
186.6051,65.3735
186.5884,65.3542
186.4585,65.1686
186.3568,65.0669
186.3233,65.0056
186.3205,64.9792
186.3205,63.4113
186.3205,63.4113
186.2859,63.2373
186.2859,63.2373
186.2180,63.0735
186.2180,63.0734
186.1195,62.9260
186.1095,62.9160
185.9940,62.8005
185.6725,62.4790
185.6390,62.4177
185.6440,62.3480
185.6859,62.2921
185.7281,62.2716
185.8687,62.2339
186.0828,62.1340
186.2764,61.9985
186.4435,61.8314
186.5734,61.6458
186.6280,61.6022
186.6975,61.5950
186.7599,61.6265
186.7766,61.6458
186.9065,61.8314
186.9065,61.8314
187.0736,61.9985
187.1570,62.0569
187.2672,62.1340
187.2672,62.1340
187.2672,62.1340
187.4813,62.2339
187.4813,62.2339
187.4813,62.2339
187.4895,62.2361
187.7096,62.2951
187.8860,62.3105
187.9450,62.3157
187.9450,62.3157
187.9450,62.3157
188.0040,62.3105
188.1804,62.2951
188.4087,62.2339
188.6228,62.1340
188.8164,61.9985
188.9835,61.8314
189.1134,61.6458
189.1680,61.6022
189.2375,61.5950
189.2999,61.6265
189.3166,61.6458
189.4465,61.8314
189.4465,61.8314
189.6136,61.9985
189.6970,62.0569
189.8072,62.1340
189.8072,62.1340
189.8072,62.1340
190.0213,62.2339
190.0213,62.2339
190.0213,62.2339
190.0295,62.2361
190.2496,62.2951
190.4260,62.3105
190.4850,62.3157
190.4850,62.3157
190.4850,62.3157
190.5440,62.3105
190.7204,62.2951
190.9487,62.2339
191.1628,62.1340
191.3564,61.9985
191.5235,61.8314
191.6534,61.6458
191.7080,61.6022
191.7775,61.5950
191.8399,61.6265
191.8566,61.6458
191.9865,61.8314
191.9865,61.8314
192.1536,61.9985
192.2370,62.0569
192.3472,62.1340
192.3472,62.1340
192.3472,62.1340
192.5613,62.2339
192.5613,62.2339
192.5613,62.2339
192.5695,62.2361
192.7896,62.2951
192.9660,62.3105
193.0250,62.3157
193.0250,62.3157
193.0250,62.3157
193.0840,62.3105
193.2604,62.2951
193.4887,62.2339
193.7028,62.1340
193.8964,61.9985
194.0635,61.8314
194.1990,61.6378
194.2989,61.4237
194.3601,61.1954
194.3807,60.9600
194.3601,60.7246
194.2989,60.4963
194.1990,60.2822
194.1934,60.2742
194.0635,60.0886
193.8964,59.9215
193.8964,59.9215
193.7028,59.7860
193.7028,59.7860
193.6422,59.7577
193.4887,59.6861
193.4887,59.6861
193.4887,59.6861
193.2604,59.6249
193.2604,59.6249
193.0250,59.6043
193.0250,59.6043
192.7896,59.6249
192.7896,59.6249
192.5613,59.6861
192.5613,59.6861
192.3472,59.7860
192.3472,59.7860
192.1536,59.9215
191.9865,60.0886
191.8566,60.2742
191.8020,60.3178
191.7325,60.3250
191.6701,60.2935
191.6534,60.2742
191.5235,60.0886
191.3564,59.9215
191.3564,59.9215
191.1628,59.7860
191.1628,59.7860
191.1022,59.7577
190.9487,59.6861
190.9487,59.6861
190.9487,59.6861
190.7204,59.6249
190.7204,59.6249
190.4850,59.6043
190.4850,59.6043
190.2496,59.6249
190.2496,59.6249
190.0213,59.6861
190.0213,59.6861
189.8072,59.7860
189.8072,59.7860
189.6136,59.9215
189.4465,60.0886
189.3166,60.2742
189.2620,60.3178
189.1925,60.3250
189.1301,60.2935
189.1134,60.2742
188.9835,60.0886
188.8164,59.9215
188.8164,59.9215
188.6228,59.7860
188.6228,59.7860
188.5622,59.7577
188.4087,59.6861
188.4087,59.6861
188.4087,59.6861
188.1804,59.6249
188.1804,59.6249
187.9450,59.6043
187.9450,59.6043
187.7096,59.6249
187.7096,59.6249
187.4813,59.6861
187.4813,59.6861
187.2672,59.7860
187.2672,59.7860
187.0736,59.9215
186.9065,60.0886
186.7766,60.2742
186.7220,60.3178
186.6525,60.3250
186.5901,60.2935
186.5734,60.2742
186.4435,60.0886
186.2764,59.9215
186.2764,59.9215
186.0828,59.7860
186.0828,59.7860
186.0222,59.7577
185.8687,59.6861
185.8687,59.6861
185.8687,59.6861
185.6404,59.6249
185.6404,59.6249
185.4050,59.6043
185.4050,59.6043
185.1696,59.6249
185.1696,59.6249
184.9413,59.6861
184.9413,59.6861
184.7272,59.7860
184.7272,59.7860
184.5336,59.9215
184.3665,60.0886
184.2366,60.2742
184.1820,60.3178
184.1125,60.3250
184.0501,60.2935
184.0334,60.2742
183.9035,60.0886
183.7364,59.9215
183.7364,59.9215
183.5428,59.7860
183.5428,59.7860
183.4822,59.7577
183.3287,59.6861
183.3287,59.6861
183.3287,59.6861
183.1004,59.6249
183.1004,59.6249
182.8650,59.6043
182.8650,59.6043
182.6296,59.6249
182.6296,59.6249
182.4013,59.6861
182.4013,59.6861
182.1872,59.7860
182.1872,59.7860
181.9936,59.9215
181.8265,60.0886
181.6966,60.2742
181.6420,60.3178
181.5725,60.3250
181.5101,60.2935
181.4934,60.2742
181.3635,60.0886
181.1964,59.9215
181.1964,59.9215
181.0028,59.7860
181.0028,59.7860
180.9422,59.7577
180.7887,59.6861
180.7887,59.6861
180.7887,59.6861
180.5604,59.6249
180.5604,59.6249
180.3250,59.6043
180.3250,59.6043
180.0896,59.6249
180.0896,59.6249
179.8613,59.6861
179.8613,59.6861
179.6472,59.7860
179.6472,59.7860
179.4536,59.9215
179.2865,60.0886
179.1566,60.2742
179.1020,60.3178
179.0325,60.3250
178.9701,60.2935
178.9534,60.2742
178.8235,60.0886
178.7218,59.9869
178.6883,59.9256
178.6855,59.8992
178.6855,58.4433
178.6855,58.4433
178.6697,58.3640
178.6697,58.3640
178.6509,58.2693
178.6509,58.2693
178.5853,58.1111
178.5837,58.1065
178.4845,57.9580
178.4845,57.9580
178.3590,57.8325
178.0690,57.5425
176.4690,55.9425
176.4690,55.9425
176.4100,55.9031
176.4100,55.9031
176.3215,55.8440
176.3215,55.8440
176.2396,55.8100
176.2396,55.8100
176.1577,55.7761
176.1577,55.7761
175.9837,55.7415
175.9837,55.7415
175.9837,55.7415
143.4717,55.7415
143.2943,55.7415
143.2943,55.7415
143.1203,55.7761
143.1203,55.7761
143.0384,55.8100
143.0384,55.8100
142.9565,55.8440
142.8680,55.9031
142.8680,55.9031
142.8090,55.9425
142.8090,55.9425
140.1635,58.5880
140.1635,58.5880
140.1605,58.5925
140.1605,58.5925
140.0650,58.7355
140.0310,58.8174
139.9971,58.8993
139.9971,58.8993
139.9707,59.0319
139.9625,59.0733
139.9625,59.8992
139.9428,59.9663
139.9262,59.9869
139.8697,60.0434
139.8083,60.0769
139.7387,60.0719
139.6827,60.0301
139.6658,59.9991
139.6168,59.8677
139.6168,59.8677
139.5305,59.7525
139.5305,59.7525
139.4153,59.6662
139.4153,59.6662
139.2805,59.6159
139.2805,59.6159
139.2209,59.6095
139.2209,59.6095
139.2209,59.6095
139.2209,59.6095
137.4251,59.6095
137.4251,59.6095
137.3655,59.6159
137.2307,59.6662
137.2307,59.6662
137.1155,59.7525
137.1155,59.7525
137.0292,59.8677
137.0292,59.8677
136.9877,59.9788
136.9459,60.0348
136.8804,60.0592
136.8716,60.0595
122.3393,60.0595
122.2696,60.0734
122.2696,60.0734
122.1653,60.0941
122.1653,60.0941
122.0015,60.1620
122.0014,60.1620
121.8540,60.2605
121.8540,60.2605
120.3315,61.7830
120.3315,61.7830
120.2992,61.8314
120.2992,61.8314
120.2330,61.9305
120.1990,62.0124
120.1651,62.0943
120.1651,62.0943
120.1369,62.2361
120.1369,62.2361
120.1305,62.2683
120.1305,81.6227
117.0940,81.6227
117.0940,54.9880
117.1137,54.9210
117.1665,54.8752
117.2180,54.8640
199.5200,54.8640
Z" /> 
<path style="fill:#000000; fill-opacity:1.0000; stroke:none;fill-rule:evenodd;"
d="M 175.5377,57.5622
175.5583,57.5788
176.8482,58.8687
176.8817,58.9300
176.8845,58.9564
176.8845,59.8992
176.8648,59.9663
176.8482,59.9869
176.7465,60.0886
176.6166,60.2742
176.5620,60.3178
176.4925,60.3250
176.4301,60.2935
176.4134,60.2742
176.2835,60.0886
176.1164,59.9215
176.1164,59.9215
175.9228,59.7860
175.9228,59.7860
175.8622,59.7577
175.7087,59.6861
175.7087,59.6861
175.7087,59.6861
175.4804,59.6249
175.4804,59.6249
175.2450,59.6043
175.2450,59.6043
175.0096,59.6249
175.0096,59.6249
174.7813,59.6861
174.7813,59.6861
174.5672,59.7860
174.5672,59.7860
174.3736,59.9215
174.2065,60.0886
174.0766,60.2742
174.0220,60.3178
173.9525,60.3250
173.8901,60.2935
173.8734,60.2742
173.7435,60.0886
173.5764,59.9215
173.5764,59.9215
173.3828,59.7860
173.3828,59.7860
173.3222,59.7577
173.1687,59.6861
173.1687,59.6861
173.1687,59.6861
172.9404,59.6249
172.9404,59.6249
172.7050,59.6043
172.7050,59.6043
172.4696,59.6249
172.4696,59.6249
172.2413,59.6861
172.2413,59.6861
172.0272,59.7860
172.0272,59.7860
171.8336,59.9215
171.6665,60.0886
171.5366,60.2742
171.4820,60.3178
171.4125,60.3250
171.3501,60.2935
171.3334,60.2742
171.2035,60.0886
171.1018,59.9869
171.0683,59.9256
171.0655,59.8992
171.0655,59.3323
171.0655,59.3323
171.0309,59.1583
171.0309,59.1583
170.9957,59.0733
170.9630,58.9945
170.8768,58.8655
170.8645,58.8470
169.7717,57.7542
169.7382,57.6929
169.7432,57.6232
169.7851,57.5672
169.8505,57.5428
169.8594,57.5425
175.4706,57.5425
Z" /> 
<path style="fill:#000000; fill-opacity:1.0000; stroke:none;fill-rule:evenodd;"
d="M 184.2199,61.6265
184.2366,61.6458
184.3665,61.8314
184.3665,61.8314
184.4149,61.8798
184.4484,61.9411
184.4434,62.0108
184.4016,62.0668
184.3361,62.0912
184.3272,62.0915
183.9428,62.0915
183.8757,62.0718
183.8300,62.0190
183.8200,61.9499
183.8490,61.8863
183.8551,61.8798
183.9035,61.8314
183.9035,61.8314
184.0334,61.6458
184.0880,61.6022
184.1575,61.5950
Z" /> 
<path style="fill:#000000; fill-opacity:1.0000; stroke:none;fill-rule:evenodd;"
d="M 181.6799,61.6265
181.6966,61.6458
181.8265,61.8314
181.8265,61.8314
181.9282,61.9331
181.9617,61.9944
181.9645,62.0208
181.9645,62.4307
181.9953,62.5854
181.9890,62.6550
181.9462,62.7102
181.8803,62.7334
181.8495,62.7312
181.8257,62.7265
181.8257,62.7265
181.8257,62.7265
179.4944,62.7265
179.4273,62.7068
179.4067,62.6902
178.7734,62.0569
178.7399,61.9956
178.7449,61.9259
178.7734,61.8815
178.8235,61.8314
178.9534,61.6458
179.0080,61.6022
179.0775,61.5950
179.1399,61.6265
179.1566,61.6458
179.2865,61.8314
179.4536,61.9985
179.5370,62.0569
179.6472,62.1340
179.6472,62.1340
179.6472,62.1340
179.8613,62.2339
179.8613,62.2339
179.8613,62.2339
179.8695,62.2361
180.0896,62.2951
180.2660,62.3105
180.3250,62.3157
180.3250,62.3157
180.3250,62.3157
180.3840,62.3105
180.5604,62.2951
180.7887,62.2339
181.0028,62.1340
181.1964,61.9985
181.3635,61.8314
181.4934,61.6458
181.5480,61.6022
181.6175,61.5950
Z" /> 
<path style="fill:#000000; fill-opacity:1.0000; stroke:none;fill-rule:evenodd;"
d="M 158.8199,61.6265
158.8366,61.6458
158.9665,61.8314
158.9665,61.8314
159.0682,61.9331
159.1017,61.9944
159.1045,62.0208
159.1045,62.4307
159.1362,62.5902
159.1300,62.6598
159.0871,62.7149
159.0212,62.7382
158.9532,62.7221
158.9457,62.7175
158.9298,62.7068
158.9225,62.7020
158.9225,62.7020
158.9225,62.7020
158.8406,62.6680
158.8406,62.6680
158.7587,62.6341
158.7587,62.6341
158.5847,62.5995
158.5847,62.5995
158.5847,62.5995
153.5864,62.5995
153.5193,62.5798
153.4987,62.5632
153.3218,62.3863
153.2883,62.3250
153.2855,62.2986
153.2855,62.0208
153.3052,61.9537
153.3218,61.9331
153.4235,61.8314
153.4235,61.8314
153.5534,61.6458
153.6080,61.6022
153.6775,61.5950
153.7399,61.6265
153.7566,61.6458
153.8865,61.8314
153.8865,61.8314
154.0536,61.9985
154.1370,62.0569
154.2472,62.1340
154.2472,62.1340
154.2472,62.1340
154.4613,62.2339
154.4613,62.2339
154.4613,62.2339
154.4695,62.2361
154.6896,62.2951
154.8660,62.3105
154.9250,62.3157
154.9250,62.3157
154.9250,62.3157
154.9840,62.3105
155.1604,62.2951
155.3887,62.2339
155.6028,62.1340
155.7964,61.9985
155.9635,61.8314
156.0934,61.6458
156.1480,61.6022
156.2175,61.5950
156.2799,61.6265
156.2966,61.6458
156.4265,61.8314
156.4265,61.8314
156.5936,61.9985
156.6770,62.0569
156.7872,62.1340
156.7872,62.1340
156.7872,62.1340
157.0013,62.2339
157.0013,62.2339
157.0013,62.2339
157.0095,62.2361
157.2296,62.2951
157.4060,62.3105
157.4650,62.3157
157.4650,62.3157
157.4650,62.3157
157.5240,62.3105
157.7004,62.2951
157.9287,62.2339
158.1428,62.1340
158.3364,61.9985
158.5035,61.8314
158.6334,61.6458
158.6880,61.6022
158.7575,61.5950
Z" /> 
<path style="fill:#000000; fill-opacity:1.0000; stroke:none;fill-rule:evenodd;"
d="M 184.4625,63.9122
184.5083,63.9650
184.5195,64.0165
184.5195,64.9792
184.4998,65.0463
184.4832,65.0669
184.3815,65.1686
184.2516,65.3542
184.1970,65.3978
184.1275,65.4050
184.0651,65.3735
184.0484,65.3542
183.9185,65.1686
183.8168,65.0669
183.7833,65.0056
183.7805,64.9792
183.7805,64.6813
183.7799,64.6784
183.7775,64.6661
183.7459,64.5073
183.6915,64.3759
183.6890,64.3699
183.6780,64.3435
183.6654,64.3245
183.6178,64.2533
183.5795,64.1960
183.5795,64.1960
183.4877,64.1042
183.4542,64.0429
183.4592,63.9732
183.5011,63.9172
183.5665,63.8928
183.5754,63.8925
184.3955,63.8925
Z" /> 
<path style="fill:#000000; fill-opacity:1.0000; stroke:none;fill-rule:evenodd;"
d="M 181.3797,64.5472
181.4003,64.5638
181.8358,64.9993
181.8693,65.0606
181.8643,65.1303
181.8446,65.1641
181.8446,65.1642
181.8444,65.1644
181.8431,65.1667
181.8415,65.1686
181.7116,65.3542
181.6570,65.3978
181.5875,65.4050
181.5251,65.3735
181.5084,65.3542
181.3785,65.1686
181.2114,65.0015
181.2114,65.0015
181.0178,64.8660
181.0178,64.8660
180.7989,64.7639
180.7465,64.7177
180.7273,64.6505
180.7475,64.5836
180.8007,64.5383
180.8513,64.5275
181.3126,64.5275
Z" /> 
<path style="fill:#000000; fill-opacity:1.0000; stroke:none;fill-rule:evenodd;"
d="M 176.5999,61.6265
176.6166,61.6458
176.7465,61.8314
176.7465,61.8314
176.8482,61.9331
176.8817,61.9944
176.8845,62.0208
176.8845,62.4307
176.9191,62.6047
176.9191,62.6047
176.9354,62.6441
176.9870,62.7685
177.0461,62.8570
177.0855,62.9160
177.0855,62.9160
178.3705,64.2010
178.4675,64.2980
178.4960,64.3265
178.6434,64.4250
178.6435,64.4250
178.7664,64.4759
178.8073,64.4929
178.8073,64.4929
178.8073,64.4929
178.9813,64.5275
178.9813,64.5275
178.9813,64.5275
179.8287,64.5275
179.8957,64.5472
179.9415,64.6000
179.9514,64.6691
179.9224,64.7327
179.8811,64.7639
179.6622,64.8660
179.6622,64.8660
179.4686,65.0015
179.3015,65.1686
179.1716,65.3542
179.1170,65.3978
179.0475,65.4050
178.9851,65.3735
178.9684,65.3542
178.8385,65.1686
178.6714,65.0015
178.6714,65.0015
178.4778,64.8660
178.4778,64.8660
178.4493,64.8527
178.2637,64.7661
178.2637,64.7661
178.2637,64.7661
178.0354,64.7049
178.0354,64.7049
177.8000,64.6843
177.8000,64.6843
177.5646,64.7049
177.5646,64.7049
177.3363,64.7661
177.3363,64.7661
177.1222,64.8660
177.1222,64.8660
176.9286,65.0015
176.7615,65.1686
176.6316,65.3542
176.5770,65.3978
176.5075,65.4050
176.4451,65.3735
176.4284,65.3542
176.2985,65.1686
176.1968,65.0669
176.1633,65.0056
176.1605,64.9792
176.1605,64.4273
176.1605,64.4273
176.1600,64.4250
176.1259,64.2533
176.0822,64.1478
176.0580,64.0895
176.0580,64.0895
176.0580,64.0894
175.9806,63.9737
175.9806,63.9737
175.9595,63.9420
174.8180,62.8005
174.8180,62.8005
174.7590,62.7611
174.7590,62.7611
174.6705,62.7020
174.6705,62.7020
174.5886,62.6680
174.5886,62.6680
174.5067,62.6341
174.5067,62.6341
174.3327,62.5995
174.3327,62.5995
174.3327,62.5995
171.7474,62.5995
171.6803,62.5798
171.6597,62.5632
171.1534,62.0569
171.1199,61.9956
171.1249,61.9259
171.1534,61.8815
171.2035,61.8314
171.3334,61.6458
171.3880,61.6022
171.4575,61.5950
171.5199,61.6265
171.5366,61.6458
171.6665,61.8314
171.8336,61.9985
171.9170,62.0569
172.0272,62.1340
172.0272,62.1340
172.0272,62.1340
172.2413,62.2339
172.2413,62.2339
172.2413,62.2339
172.2495,62.2361
172.4696,62.2951
172.6460,62.3105
172.7050,62.3157
172.7050,62.3157
172.7050,62.3157
172.7640,62.3105
172.9404,62.2951
173.1687,62.2339
173.3828,62.1340
173.5764,61.9985
173.7435,61.8314
173.8734,61.6458
173.9280,61.6022
173.9975,61.5950
174.0599,61.6265
174.0766,61.6458
174.2065,61.8314
174.2065,61.8314
174.3736,61.9985
174.4570,62.0569
174.5672,62.1340
174.5672,62.1340
174.5672,62.1340
174.7813,62.2339
174.7813,62.2339
174.7813,62.2339
174.7895,62.2361
175.0096,62.2951
175.1860,62.3105
175.2450,62.3157
175.2450,62.3157
175.2450,62.3157
175.3040,62.3105
175.4804,62.2951
175.7087,62.2339
175.9228,62.1340
176.1164,61.9985
176.2835,61.8314
176.4134,61.6458
176.4680,61.6022
176.5375,61.5950
Z" /> 
<path style="fill:#000000; fill-opacity:1.0000; stroke:none;fill-rule:evenodd;"
d="M 168.9799,61.6265
168.9966,61.6458
169.1265,61.8314
169.1265,61.8314
169.2282,61.9331
169.2617,61.9944
169.2645,62.0208
169.2645,62.4307
169.2991,62.6047
169.2991,62.6047
169.3154,62.6441
169.3670,62.7685
169.4261,62.8570
169.4655,62.9160
169.4655,62.9160
170.6235,64.0740
170.6973,64.1478
170.7490,64.1995
170.8964,64.2980
170.8965,64.2980
171.0062,64.3435
171.0603,64.3659
171.0806,64.3699
171.2343,64.4005
171.2343,64.4005
171.2343,64.4005
173.8196,64.4005
173.8867,64.4202
173.9073,64.4368
174.3232,64.8527
174.3567,64.9140
174.3595,64.9404
174.3595,64.9792
174.3398,65.0463
174.3232,65.0669
174.2215,65.1686
174.0916,65.3542
174.0370,65.3978
173.9675,65.4050
173.9051,65.3735
173.8884,65.3542
173.7585,65.1686
173.5914,65.0015
173.5914,65.0015
173.3978,64.8660
173.3978,64.8660
173.3693,64.8527
173.1837,64.7661
173.1837,64.7661
173.1837,64.7661
172.9554,64.7049
172.9554,64.7049
172.7200,64.6843
172.7200,64.6843
172.4846,64.7049
172.4846,64.7049
172.2563,64.7661
172.2563,64.7661
172.0422,64.8660
172.0422,64.8660
171.8486,65.0015
171.6815,65.1686
171.5516,65.3542
171.4970,65.3978
171.4275,65.4050
171.3651,65.3735
171.3484,65.3542
171.2185,65.1686
171.0514,65.0015
171.0514,65.0015
170.8578,64.8660
170.8578,64.8660
170.8293,64.8527
170.6437,64.7661
170.6437,64.7661
170.6437,64.7661
170.4154,64.7049
170.4154,64.7049
170.1800,64.6843
170.1800,64.6843
169.9446,64.7049
169.9446,64.7049
169.7163,64.7661
169.7163,64.7661
169.5022,64.8660
169.5022,64.8660
169.3086,65.0015
169.1415,65.1686
169.0116,65.3542
168.9570,65.3978
168.8875,65.4050
168.8251,65.3735
168.8084,65.3542
168.6785,65.1686
168.5768,65.0669
168.5433,65.0056
168.5405,64.9792
168.5405,64.4273
168.5405,64.4273
168.5400,64.4250
168.5059,64.2533
168.4622,64.1478
168.4380,64.0895
168.4380,64.0895
168.4380,64.0894
168.3606,63.9737
168.3606,63.9737
168.3395,63.9420
167.1980,62.8005
167.1980,62.8005
167.1390,62.7611
167.1390,62.7611
167.0505,62.7020
167.0505,62.7020
166.9686,62.6680
166.9686,62.6680
166.8867,62.6341
166.8867,62.6341
166.7127,62.5995
166.7127,62.5995
166.7127,62.5995
161.5874,62.5995
161.5203,62.5798
161.4997,62.5632
160.9934,62.0569
160.9599,61.9956
160.9649,61.9259
160.9934,61.8815
161.0435,61.8314
161.1734,61.6458
161.2280,61.6022
161.2975,61.5950
161.3599,61.6265
161.3766,61.6458
161.5065,61.8314
161.6736,61.9985
161.7570,62.0569
161.8672,62.1340
161.8672,62.1340
161.8672,62.1340
162.0813,62.2339
162.0813,62.2339
162.0813,62.2339
162.0895,62.2361
162.3096,62.2951
162.4860,62.3105
162.5450,62.3157
162.5450,62.3157
162.5450,62.3157
162.6040,62.3105
162.7804,62.2951
163.0087,62.2339
163.2228,62.1340
163.4164,61.9985
163.5835,61.8314
163.7134,61.6458
163.7680,61.6022
163.8375,61.5950
163.8999,61.6265
163.9166,61.6458
164.0465,61.8314
164.0465,61.8314
164.2136,61.9985
164.2970,62.0569
164.4072,62.1340
164.4072,62.1340
164.4072,62.1340
164.6213,62.2339
164.6213,62.2339
164.6213,62.2339
164.6295,62.2361
164.8496,62.2951
165.0260,62.3105
165.0850,62.3157
165.0850,62.3157
165.0850,62.3157
165.1440,62.3105
165.3204,62.2951
165.5487,62.2339
165.7628,62.1340
165.9564,61.9985
166.1235,61.8314
166.2534,61.6458
166.3080,61.6022
166.3775,61.5950
166.4399,61.6265
166.4566,61.6458
166.5865,61.8314
166.5865,61.8314
166.7536,61.9985
166.8370,62.0569
166.9472,62.1340
166.9472,62.1340
166.9472,62.1340
167.1613,62.2339
167.1613,62.2339
167.1613,62.2339
167.1695,62.2361
167.3896,62.2951
167.5660,62.3105
167.6250,62.3157
167.6250,62.3157
167.6250,62.3157
167.6840,62.3105
167.8604,62.2951
168.0887,62.2339
168.3028,62.1340
168.4964,61.9985
168.6635,61.8314
168.7934,61.6458
168.8480,61.6022
168.9175,61.5950
Z" /> 
<path style="fill:#000000; fill-opacity:1.0000; stroke:none;fill-rule:evenodd;"
d="M 160.9206,64.3699
161.0743,64.4005
161.0743,64.4005
161.0743,64.4005
166.1996,64.4005
166.2667,64.4202
166.2873,64.4368
166.7032,64.8527
166.7367,64.9140
166.7395,64.9404
166.7395,64.9792
166.7198,65.0463
166.7032,65.0669
166.6015,65.1686
166.4716,65.3542
166.4170,65.3978
166.3475,65.4050
166.2851,65.3735
166.2684,65.3542
166.1385,65.1686
165.9714,65.0015
165.9714,65.0015
165.7778,64.8660
165.7778,64.8660
165.7493,64.8527
165.5637,64.7661
165.5637,64.7661
165.5637,64.7661
165.3354,64.7049
165.3354,64.7049
165.1000,64.6843
165.1000,64.6843
164.8646,64.7049
164.8646,64.7049
164.6363,64.7661
164.6363,64.7661
164.4222,64.8660
164.4222,64.8660
164.2286,65.0015
164.0615,65.1686
163.9316,65.3542
163.8770,65.3978
163.8075,65.4050
163.7451,65.3735
163.7284,65.3542
163.5985,65.1686
163.4314,65.0015
163.4314,65.0015
163.2378,64.8660
163.2378,64.8660
163.2093,64.8527
163.0237,64.7661
163.0237,64.7661
163.0237,64.7661
162.7954,64.7049
162.7954,64.7049
162.5600,64.6843
162.5600,64.6843
162.3246,64.7049
162.3246,64.7049
162.0963,64.7661
162.0963,64.7661
161.8822,64.8660
161.8822,64.8660
161.6886,65.0015
161.5215,65.1686
161.3916,65.3542
161.3370,65.3978
161.2675,65.4050
161.2051,65.3735
161.1884,65.3542
161.0585,65.1686
160.9568,65.0669
160.9233,65.0056
160.9205,64.9792
160.9205,64.9353
160.9205,64.9353
160.8859,64.7613
160.8859,64.7613
160.8180,64.5975
160.8180,64.5974
160.7933,64.5604
160.7724,64.4938
160.7909,64.4264
160.8429,64.3797
160.9118,64.3685
Z" /> 
<path style="fill:#000000; fill-opacity:1.0000; stroke:none;fill-rule:evenodd;"
d="M 144.6597,57.5622
144.7054,57.6150
144.7154,57.6841
144.6864,57.7477
144.6803,57.7542
143.0645,59.3700
143.0645,59.3700
143.0280,59.4247
143.0280,59.4247
142.9660,59.5175
142.9660,59.5175
142.9365,59.5885
142.9365,59.5885
142.8981,59.6813
142.8981,59.6813
142.8840,59.7525
142.8635,59.8553
142.8635,73.3626
142.8438,73.4297
142.8272,73.4503
142.0303,74.2472
141.9690,74.2807
141.9426,74.2835
141.8500,74.2835
141.7830,74.2638
141.7373,74.2110
141.7273,74.1419
141.7563,74.0783
141.7624,74.0718
141.8430,73.9911
141.8430,73.9911
141.9736,73.8047
142.0697,73.5985
142.1286,73.3787
142.1485,73.1520
142.1453,73.1160
142.1286,72.9253
142.1286,72.9253
142.0697,72.7055
141.9736,72.4993
141.8430,72.3129
141.8430,72.3129
141.7798,72.2496
141.7463,72.1883
141.7435,72.1620
141.7435,68.1418
141.7632,68.0747
141.7798,68.0541
141.7954,68.0385
141.8815,67.9524
142.0170,67.7588
142.1169,67.5447
142.1781,67.3164
142.1987,67.0810
142.1781,66.8456
142.1215,66.6345
142.1169,66.6173
142.1169,66.6173
142.1169,66.6173
142.0170,66.4032
141.9346,66.2854
141.8815,66.2096
141.7144,66.0425
141.7144,66.0425
141.5208,65.9070
141.5208,65.9070
141.5166,65.9050
141.3067,65.8071
141.3067,65.8071
141.3067,65.8071
141.0784,65.7459
141.0784,65.7459
140.8430,65.7253
140.8430,65.7253
140.6076,65.7459
140.6076,65.7459
140.3793,65.8071
140.3793,65.8071
140.1652,65.9070
140.1652,65.9070
139.9716,66.0425
139.8497,66.1644
139.7883,66.1979
139.7187,66.1929
139.6627,66.1511
139.6458,66.1201
139.5968,65.9887
139.5968,65.9887
139.5105,65.8735
139.5105,65.8735
139.3953,65.7872
139.3953,65.7872
139.3042,65.7532
139.2482,65.7113
139.2238,65.6459
139.2235,65.6370
139.2235,62.4114
139.2432,62.3444
139.2960,62.2986
139.3042,62.2953
139.3127,62.2921
139.3440,62.2804
139.4153,62.2538
139.4153,62.2538
139.4153,62.2538
139.5305,62.1675
139.6168,62.0523
139.6658,61.9209
139.7077,61.8650
139.7731,61.8406
139.8414,61.8554
139.8697,61.8766
139.9916,61.9985
140.0750,62.0569
140.1852,62.1340
140.1852,62.1340
140.1852,62.1340
140.3993,62.2339
140.3993,62.2339
140.3993,62.2339
140.4075,62.2361
140.6276,62.2951
140.8040,62.3105
140.8630,62.3157
140.8630,62.3157
140.8630,62.3157
140.9220,62.3105
141.0984,62.2951
141.3267,62.2339
141.5408,62.1340
141.7344,61.9985
141.9015,61.8314
142.0370,61.6378
142.1369,61.4237
142.1981,61.1954
142.2187,60.9600
142.1981,60.7246
142.1369,60.4963
142.0370,60.2822
142.0314,60.2742
141.9015,60.0886
141.7998,59.9869
141.7663,59.9256
141.7635,59.8992
141.7635,59.5864
141.7832,59.5193
141.7998,59.4987
143.7197,57.5788
143.7810,57.5453
143.8074,57.5425
144.5926,57.5425
Z" /> 
<path style="fill:#000000; fill-opacity:1.0000; stroke:none;fill-rule:evenodd;"
d="M 136.9386,61.8802
136.9844,61.9330
136.9877,61.9412
137.0292,62.0523
137.0292,62.0523
137.1155,62.1675
137.1155,62.1675
137.2307,62.2538
137.2307,62.2538
137.3418,62.2953
137.3978,62.3371
137.4222,62.4026
137.4225,62.4114
137.4225,65.6221
137.4028,65.6891
137.3500,65.7349
137.3418,65.7383
137.2107,65.7872
137.2107,65.7872
137.0955,65.8735
137.0955,65.8735
137.0092,65.9887
137.0092,65.9887
136.9589,66.1235
136.9525,66.1831
136.9525,66.1831
136.9525,67.9789
136.9525,67.9789
136.9589,68.0385
137.0092,68.1733
137.0092,68.1733
137.0955,68.2885
137.0955,68.2885
137.2107,68.3748
137.2107,68.3748
137.3455,68.4251
137.3455,68.4251
137.3524,68.4258
137.4051,68.4315
139.2009,68.4315
139.2605,68.4251
139.3953,68.3748
139.5105,68.2885
139.5968,68.1733
139.6458,68.0419
139.6877,67.9860
139.7531,67.9616
139.8214,67.9764
139.8497,67.9976
139.9062,68.0541
139.9397,68.1154
139.9425,68.1418
139.9425,72.1620
139.9228,72.2290
139.9062,72.2496
139.8430,72.3129
139.7124,72.4993
139.7124,72.4993
139.6163,72.7055
139.6163,72.7055
139.5574,72.9253
139.5574,72.9253
139.5375,73.1520
139.5375,73.1520
139.5574,73.3787
139.5574,73.3787
139.6163,73.5985
139.6163,73.5985
139.7124,73.8047
139.7124,73.8047
139.8430,73.9911
139.9236,74.0718
139.9571,74.1331
139.9521,74.2028
139.9103,74.2588
139.8448,74.2832
139.8360,74.2835
134.7904,74.2835
134.7233,74.2638
134.7027,74.2472
133.2708,72.8153
133.2373,72.7540
133.2345,72.7276
133.2345,65.4433
133.2345,65.4433
133.2160,65.3505
133.1999,65.2693
133.1472,65.1421
133.1320,65.1055
133.0626,65.0015
133.0335,64.9580
133.0335,64.9580
133.0335,64.9580
130.8860,62.8105
130.8424,62.7814
130.8121,62.7611
130.8120,62.7611
130.7386,62.7120
130.7385,62.7120
130.6566,62.6780
130.6566,62.6780
130.5747,62.6441
130.5747,62.6441
130.4007,62.6095
130.4007,62.6095
130.4007,62.6095
127.1318,62.6095
127.0647,62.5898
127.0441,62.5732
126.9424,62.4715
126.9424,62.4715
126.7488,62.3360
126.7488,62.3360
126.6688,62.2986
126.5347,62.2361
126.5347,62.2361
126.5347,62.2361
126.3064,62.1749
126.3064,62.1749
126.0710,62.1543
126.0710,62.1543
125.8356,62.1749
125.8356,62.1749
125.6073,62.2361
125.6073,62.2361
125.3932,62.3360
125.3932,62.3360
125.1996,62.4715
125.0325,62.6386
124.8970,62.8322
124.8970,62.8322
124.7971,63.0463
124.7971,63.0463
124.7359,63.2746
124.7359,63.2746
124.7153,63.5100
124.7153,63.5100
124.7359,63.7454
124.7359,63.7454
124.7971,63.9737
124.7971,63.9737
124.7971,63.9737
124.8511,64.0894
124.8970,64.1878
124.8970,64.1878
124.9428,64.2533
125.0059,64.3435
125.0325,64.3814
125.0325,64.3814
125.1996,64.5485
125.1996,64.5485
125.3852,64.6784
125.4288,64.7330
125.4360,64.8025
125.4045,64.8649
125.3852,64.8816
125.1996,65.0115
125.0325,65.1786
124.8970,65.3722
124.8970,65.3722
124.7971,65.5863
124.7971,65.5863
124.7359,65.8146
124.7359,65.8146
124.7153,66.0500
124.7153,66.0500
124.7359,66.2854
124.7359,66.2854
124.7971,66.5137
124.7971,66.5137
124.7971,66.5137
124.8723,66.6750
124.8970,66.7278
124.8970,66.7278
124.9794,66.8456
125.0319,66.9206
125.0325,66.9214
125.0325,66.9214
125.1544,67.0433
125.1879,67.1046
125.1829,67.1743
125.1411,67.2303
125.1101,67.2472
124.9787,67.2962
124.9787,67.2962
124.8635,67.3825
124.8635,67.3825
124.7772,67.4977
124.7772,67.4977
124.7357,67.6088
124.6939,67.6648
124.6284,67.6892
124.6196,67.6895
122.0555,67.6895
121.9885,67.6698
121.9427,67.6170
121.9315,67.5655
121.9315,62.7814
121.9512,62.7143
121.9678,62.6937
122.7647,61.8968
122.8260,61.8633
122.8524,61.8605
136.8716,61.8605
Z" /> 
<path style="fill:#000000; fill-opacity:1.0000; stroke:none;fill-rule:evenodd;"
d="M 128.4307,66.9702
128.4513,66.9868
128.6032,67.1387
128.6367,67.2000
128.6395,67.2264
128.6395,72.2196
128.6198,72.2867
128.6032,72.3073
127.9333,72.9772
127.8720,73.0107
127.8456,73.0135
124.1173,73.0135
123.9433,73.0481
123.9433,73.0481
123.8614,73.0820
123.8614,73.0820
123.7795,73.1160
123.6910,73.1751
123.6910,73.1751
123.6320,73.2145
122.3635,74.4830
122.3241,74.5420
122.3241,74.5420
122.2650,74.6304
122.2650,74.6305
122.2557,74.6529
122.2557,74.6529
122.1971,74.7943
122.1971,74.7943
122.1771,74.8948
122.1447,74.9567
122.0840,74.9913
122.0142,74.9876
121.9576,74.9467
121.9320,74.8817
121.9315,74.8706
121.9315,69.6145
121.9512,69.5475
122.0040,69.5017
122.0555,69.4905
124.6196,69.4905
124.6866,69.5102
124.7324,69.5630
124.7357,69.5712
124.7772,69.6823
124.7772,69.6823
124.8635,69.7975
124.8635,69.7975
124.9787,69.8838
124.9787,69.8838
125.1135,69.9341
125.1135,69.9341
125.1204,69.9348
125.1731,69.9405
126.9689,69.9405
127.0285,69.9341
127.1633,69.8838
127.2785,69.7975
127.3648,69.6823
127.4151,69.5475
127.4215,69.4879
127.4215,67.6921
127.4151,67.6325
127.4063,67.6088
127.3648,67.4977
127.3648,67.4977
127.2785,67.3825
127.2785,67.3825
127.1633,67.2962
127.1633,67.2962
127.0319,67.2472
126.9760,67.2053
126.9516,67.1399
126.9664,67.0716
126.9876,67.0433
127.0441,66.9868
127.1054,66.9533
127.1318,66.9505
128.3636,66.9505
Z" /> 
<path style="fill:#000000; fill-opacity:1.0000; stroke:none;fill-rule:evenodd;"
d="M 168.5527,59.0862
168.5733,59.1028
169.2282,59.7577
169.2617,59.8190
169.2645,59.8454
169.2645,59.8992
169.2448,59.9663
169.2282,59.9869
169.1265,60.0886
168.9966,60.2742
168.9420,60.3178
168.8725,60.3250
168.8101,60.2935
168.7934,60.2742
168.6635,60.0886
168.4964,59.9215
168.4964,59.9215
168.3028,59.7860
168.3028,59.7860
168.2422,59.7577
168.0887,59.6861
168.0887,59.6861
168.0887,59.6861
167.8604,59.6249
167.8604,59.6249
167.6250,59.6043
167.6250,59.6043
167.3896,59.6249
167.3896,59.6249
167.1613,59.6861
167.1613,59.6861
166.9472,59.7860
166.9472,59.7860
166.7536,59.9215
166.5865,60.0886
166.4566,60.2742
166.4020,60.3178
166.3325,60.3250
166.2701,60.2935
166.2534,60.2742
166.1235,60.0886
165.9564,59.9215
165.9564,59.9215
165.7628,59.7860
165.7628,59.7860
165.7022,59.7577
165.5487,59.6861
165.5487,59.6861
165.5487,59.6861
165.3204,59.6249
165.3204,59.6249
165.0850,59.6043
165.0850,59.6043
164.8496,59.6249
164.8496,59.6249
164.6213,59.6861
164.6213,59.6861
164.4072,59.7860
164.4072,59.7860
164.2136,59.9215
164.0465,60.0886
163.9166,60.2742
163.8620,60.3178
163.7925,60.3250
163.7301,60.2935
163.7134,60.2742
163.5835,60.0886
163.4164,59.9215
163.4164,59.9215
163.2228,59.7860
163.2228,59.7860
163.1622,59.7577
163.0087,59.6861
163.0087,59.6861
163.0087,59.6861
162.7804,59.6249
162.7804,59.6249
162.5450,59.6043
162.5450,59.6043
162.3096,59.6249
162.3096,59.6249
162.0813,59.6861
162.0813,59.6861
161.8672,59.7860
161.8672,59.7860
161.6736,59.9215
161.5065,60.0886
161.3766,60.2742
161.3220,60.3178
161.2525,60.3250
161.1901,60.2935
161.1734,60.2742
161.0435,60.0886
160.8764,59.9215
160.8764,59.9215
160.6828,59.7860
160.6828,59.7860
160.6222,59.7577
160.4687,59.6861
160.4687,59.6861
160.4687,59.6861
160.2404,59.6249
160.2404,59.6249
160.0050,59.6043
160.0050,59.6043
159.7696,59.6249
159.7696,59.6249
159.5413,59.6861
159.5413,59.6861
159.3272,59.7860
159.3272,59.7860
159.1336,59.9215
158.9665,60.0886
158.8366,60.2742
158.7820,60.3178
158.7125,60.3250
158.6501,60.2935
158.6334,60.2742
158.5035,60.0886
158.3364,59.9215
158.3364,59.9215
158.1428,59.7860
158.1428,59.7860
158.0822,59.7577
157.9287,59.6861
157.9287,59.6861
157.9287,59.6861
157.7004,59.6249
157.7004,59.6249
157.4650,59.6043
157.4650,59.6043
157.2296,59.6249
157.2296,59.6249
157.0013,59.6861
157.0013,59.6861
156.7872,59.7860
156.7872,59.7860
156.5936,59.9215
156.4265,60.0886
156.2966,60.2742
156.2420,60.3178
156.1725,60.3250
156.1101,60.2935
156.0934,60.2742
155.9635,60.0886
155.7964,59.9215
155.7964,59.9215
155.6028,59.7860
155.6028,59.7860
155.5422,59.7577
155.3887,59.6861
155.3887,59.6861
155.3887,59.6861
155.1604,59.6249
155.1604,59.6249
154.9250,59.6043
154.9250,59.6043
154.6896,59.6249
154.6896,59.6249
154.4613,59.6861
154.4613,59.6861
154.2472,59.7860
154.2472,59.7860
154.0536,59.9215
153.8865,60.0886
153.7566,60.2742
153.7020,60.3178
153.6325,60.3250
153.5701,60.2935
153.5534,60.2742
153.4235,60.0886
153.2564,59.9215
153.2564,59.9215
153.0628,59.7860
153.0628,59.7860
153.0022,59.7577
152.8487,59.6861
152.8487,59.6861
152.8487,59.6861
152.6204,59.6249
152.6204,59.6249
152.3850,59.6043
152.3850,59.6043
152.1496,59.6249
152.1496,59.6249
151.9213,59.6861
151.9213,59.6861
151.7072,59.7860
151.7072,59.7860
151.5136,59.9215
151.3465,60.0886
151.2166,60.2742
151.1620,60.3178
151.0925,60.3250
151.0301,60.2935
151.0134,60.2742
150.8835,60.0886
150.7164,59.9215
150.7164,59.9215
150.5228,59.7860
150.5228,59.7860
150.4622,59.7577
150.3087,59.6861
150.3087,59.6861
150.3087,59.6861
150.0804,59.6249
150.0804,59.6249
149.8450,59.6043
149.8450,59.6043
149.6096,59.6249
149.6096,59.6249
149.3813,59.6861
149.3813,59.6861
149.1672,59.7860
149.1672,59.7860
148.9736,59.9215
148.8517,60.0434
148.7903,60.0769
148.7207,60.0719
148.6647,60.0301
148.6478,59.9991
148.5988,59.8677
148.5988,59.8677
148.5125,59.7525
148.5125,59.7525
148.3973,59.6662
148.3973,59.6662
148.2625,59.6159
148.2625,59.6159
148.2029,59.6095
148.2029,59.6095
148.2029,59.6095
148.2029,59.6095
146.4071,59.6095
146.4071,59.6095
146.3475,59.6159
146.2127,59.6662
146.2127,59.6662
146.0975,59.7525
146.0975,59.7525
146.0112,59.8677
146.0112,59.8677
145.9609,60.0025
145.9545,60.0621
145.9545,60.0621
145.9545,61.8579
145.9545,61.8579
145.9609,61.9175
146.0112,62.0523
146.0112,62.0523
146.0975,62.1675
146.0975,62.1675
146.2127,62.2538
146.2127,62.2538
146.3475,62.3041
146.3475,62.3041
146.3544,62.3048
146.4071,62.3105
148.2029,62.3105
148.2625,62.3041
148.3973,62.2538
148.5125,62.1675
148.5988,62.0523
148.6478,61.9209
148.6897,61.8650
148.7551,61.8406
148.8234,61.8554
148.8517,61.8766
148.9736,61.9985
149.0570,62.0569
149.1672,62.1340
149.1672,62.1340
149.1672,62.1340
149.3813,62.2339
149.3813,62.2339
149.3813,62.2339
149.3895,62.2361
149.6096,62.2951
149.7860,62.3105
149.8450,62.3157
149.8450,62.3157
149.8450,62.3157
149.9040,62.3105
150.0804,62.2951
150.3087,62.2339
150.5228,62.1340
150.7164,61.9985
150.8835,61.8314
151.0134,61.6458
151.0680,61.6022
151.1375,61.5950
151.1999,61.6265
151.2166,61.6458
151.3465,61.8314
151.3465,61.8314
151.4482,61.9331
151.4817,61.9944
151.4845,62.0208
151.4845,62.8117
151.5191,62.9857
151.5191,62.9857
151.5400,63.0361
151.5870,63.1495
151.6360,63.2229
151.6360,63.2229
151.6855,63.2970
152.5880,64.1995
152.5880,64.1995
152.6277,64.2260
152.7355,64.2980
152.8041,64.3265
152.8993,64.3659
153.0733,64.4005
153.0733,64.4005
153.0733,64.4005
153.0733,64.4005
158.0716,64.4005
158.1387,64.4202
158.1593,64.4368
158.2003,64.4778
158.2338,64.5391
158.2288,64.6088
158.1869,64.6648
158.1215,64.6892
158.1126,64.6895
156.5821,64.6895
156.5821,64.6895
156.5225,64.6959
156.3877,64.7462
156.3877,64.7462
156.2725,64.8325
156.2725,64.8325
156.1862,64.9477
156.1862,64.9477
156.1359,65.0825
156.1295,65.1421
156.1295,65.1421
156.1295,66.9379
156.1295,66.9379
156.1359,66.9975
156.1862,67.1323
156.1862,67.1323
156.2725,67.2475
156.2725,67.2475
156.3877,67.3338
156.3877,67.3338
156.5225,67.3841
156.5225,67.3841
156.5294,67.3848
156.5821,67.3905
158.3779,67.3905
158.4375,67.3841
158.5723,67.3338
158.6875,67.2475
158.7738,67.1323
158.8228,67.0009
158.8647,66.9450
158.9301,66.9206
158.9984,66.9354
159.0267,66.9566
159.0832,67.0131
159.1167,67.0744
159.1195,67.1008
159.1195,72.9816
159.0998,73.0487
159.0832,73.0693
156.3813,75.7712
156.3200,75.8047
156.2936,75.8075
143.3164,75.8075
143.2493,75.7878
143.2036,75.7350
143.1936,75.6659
143.2226,75.6023
143.2287,75.5958
143.5048,75.3197
144.4635,74.3610
144.4658,74.3575
144.5159,74.2826
144.5620,74.2136
144.5620,74.2136
144.5620,74.2135
144.5631,74.2110
144.5953,74.1331
144.6299,74.0497
144.6415,73.9911
144.6645,73.8757
144.6645,60.3684
144.6842,60.3013
144.7008,60.2807
145.8787,59.1028
145.9400,59.0693
145.9664,59.0665
168.4856,59.0665
Z" /> 
<path style="fill:#000000; fill-opacity:1.0000; stroke:none;fill-rule:evenodd;"
d="M 166.4549,66.7065
166.4716,66.7258
166.6015,66.9114
166.6015,66.9114
166.7032,67.0131
166.7367,67.0744
166.7395,67.1008
166.7395,74.6326
166.7198,74.6997
166.7032,74.7203
164.1283,77.2952
164.0670,77.3287
164.0406,77.3315
157.6674,77.3315
157.6003,77.3118
157.5546,77.2590
157.5446,77.1899
157.5736,77.1263
157.5797,77.1198
160.7195,73.9800
160.7195,73.9800
160.7892,73.8757
160.8180,73.8325
160.8621,73.7260
160.8859,73.6687
160.9205,73.4947
160.9205,73.3173
160.9205,67.1008
160.9402,67.0337
160.9568,67.0131
160.9997,66.9702
161.0585,66.9114
161.1884,66.7258
161.2430,66.6822
161.3125,66.6750
161.3749,66.7065
161.3916,66.7258
161.5215,66.9114
161.5215,66.9114
161.6886,67.0785
161.7746,67.1387
161.8822,67.2140
161.8822,67.2140
161.8822,67.2140
162.0963,67.3139
162.0963,67.3139
162.0963,67.3139
162.1513,67.3286
162.3246,67.3751
162.5010,67.3905
162.5600,67.3957
162.5600,67.3957
162.5600,67.3957
162.6190,67.3905
162.7954,67.3751
163.0237,67.3139
163.2378,67.2140
163.4314,67.0785
163.5985,66.9114
163.7284,66.7258
163.7830,66.6822
163.8525,66.6750
163.9149,66.7065
163.9316,66.7258
164.0615,66.9114
164.0615,66.9114
164.2286,67.0785
164.3146,67.1387
164.4222,67.2140
164.4222,67.2140
164.4222,67.2140
164.6363,67.3139
164.6363,67.3139
164.6363,67.3139
164.6913,67.3286
164.8646,67.3751
165.0410,67.3905
165.1000,67.3957
165.1000,67.3957
165.1000,67.3957
165.1590,67.3905
165.3354,67.3751
165.5637,67.3139
165.7778,67.2140
165.9714,67.0785
166.1385,66.9114
166.2684,66.7258
166.3230,66.6822
166.3925,66.6750
Z" /> 
<path style="fill:#000000; fill-opacity:1.0000; stroke:none;fill-rule:evenodd;"
d="M 128.6308,78.3211
128.6664,78.3812
128.6639,78.4510
128.6339,78.4996
128.0603,79.0732
127.9990,79.1067
127.9726,79.1095
127.1718,79.1095
127.1047,79.0898
127.0841,79.0732
126.9824,78.9715
126.9824,78.9715
126.7968,78.8416
126.7532,78.7870
126.7460,78.7175
126.7775,78.6551
126.7968,78.6384
126.8190,78.6229
126.9824,78.5085
127.0841,78.4068
127.1454,78.3733
127.1718,78.3705
128.2317,78.3705
128.2317,78.3705
128.4057,78.3359
128.4876,78.3020
128.4988,78.2973
128.5683,78.2898
Z" /> 
<path style="fill:#000000; fill-opacity:1.0000; stroke:none;fill-rule:evenodd;"
d="M 130.8167,79.1522
130.8624,79.2050
130.8724,79.2741
130.8434,79.3377
130.8373,79.3442
129.5799,80.6016
128.5683,81.6132
128.5070,81.6467
128.4806,81.6495
127.1718,81.6495
127.1047,81.6298
127.0841,81.6132
126.9824,81.5115
126.9824,81.5115
126.7968,81.3816
126.7532,81.3270
126.7460,81.2575
126.7775,81.1951
126.7968,81.1784
126.8879,81.1147
126.9824,81.0485
127.0841,80.9468
127.1454,80.9133
127.1718,80.9105
128.4857,80.9105
128.4857,80.9105
128.6597,80.8759
128.7595,80.8345
128.8235,80.8080
128.9120,80.7489
128.9710,80.7095
130.5117,79.1688
130.5730,79.1353
130.5994,79.1325
130.7496,79.1325
Z" /> 
<path style="fill:#000000; fill-opacity:1.0000; stroke:none;fill-rule:evenodd;"
d="M 129.9547,64.4302
129.9753,64.4468
131.3972,65.8687
131.4307,65.9300
131.4335,65.9564
131.4335,73.2407
131.4681,73.4147
131.4681,73.4147
131.4681,73.4147
131.4794,73.4420
131.4794,73.4420
131.5360,73.5785
131.5360,73.5786
131.5493,73.5985
131.5493,73.5985
131.5493,73.5985
131.5962,73.6687
131.6345,73.7260
131.6345,73.7260
133.5043,75.5958
133.5378,75.6571
133.5328,75.7268
133.4909,75.7828
133.4255,75.8072
133.4166,75.8075
128.8163,75.8075
128.6423,75.8421
128.6423,75.8421
128.5425,75.8835
128.5425,75.8835
128.4785,75.9100
128.4785,75.9100
128.3707,75.9820
128.3707,75.9820
128.3310,76.0085
128.3310,76.0085
127.8063,76.5332
127.7450,76.5667
127.7186,76.5695
127.1718,76.5695
127.1047,76.5498
127.0841,76.5332
126.9824,76.4315
126.9824,76.4315
126.7888,76.2960
126.7888,76.2960
126.7888,76.2960
126.5747,76.1961
126.5747,76.1961
126.5747,76.1961
126.3464,76.1349
126.3464,76.1349
126.1110,76.1143
126.1110,76.1143
125.8756,76.1349
125.8756,76.1349
125.6473,76.1961
125.6473,76.1961
125.4332,76.2960
125.4332,76.2960
125.2396,76.4315
125.0725,76.5986
124.9370,76.7922
124.9370,76.7922
124.8371,77.0063
124.8371,77.0063
124.7759,77.2346
124.7759,77.2346
124.7553,77.4700
124.7553,77.4700
124.7759,77.7054
124.7759,77.7054
124.8371,77.9337
124.8371,77.9337
124.8371,77.9337
124.9370,78.1478
124.9370,78.1478
125.0211,78.2680
125.0686,78.3359
125.0725,78.3414
125.0725,78.3414
125.2396,78.5085
125.2396,78.5085
125.4252,78.6384
125.4688,78.6930
125.4760,78.7625
125.4445,78.8249
125.4252,78.8416
125.2396,78.9715
125.0725,79.1386
124.9370,79.3322
124.9370,79.3322
124.8371,79.5463
124.8371,79.5463
124.7759,79.7746
124.7759,79.7746
124.7553,80.0100
124.7553,80.0100
124.7759,80.2454
124.7759,80.2454
124.8371,80.4737
124.8371,80.4737
124.8371,80.4737
124.9224,80.6565
124.9370,80.6878
124.9370,80.6878
124.9798,80.7489
125.0686,80.8759
125.0725,80.8814
125.0725,80.8814
125.2396,81.0485
125.2396,81.0485
125.4252,81.1784
125.4688,81.2330
125.4760,81.3025
125.4445,81.3649
125.4252,81.3816
125.2396,81.5115
125.1888,81.5623
125.1379,81.6132
125.0766,81.6467
125.0502,81.6495
125.0114,81.6495
124.9443,81.6298
124.9237,81.6132
123.9998,80.6893
123.9663,80.6280
123.9635,80.6016
123.9635,75.4814
123.9832,75.4143
123.9998,75.3937
124.5427,74.8508
124.6040,74.8173
124.6304,74.8145
128.3587,74.8145
128.3587,74.8145
128.5327,74.7799
128.6146,74.7460
128.6965,74.7120
128.7850,74.6529
128.7850,74.6529
128.8047,74.6397
128.8440,74.6135
130.2395,73.2180
130.3076,73.1160
130.3380,73.0705
130.3410,73.0633
130.3757,72.9795
130.4059,72.9067
130.4405,72.7327
130.4405,72.5553
130.4405,66.7133
130.4248,66.6345
130.4248,66.6345
130.4059,66.5393
130.4059,66.5393
130.3495,66.4032
130.3380,66.3755
130.3380,66.3755
130.3380,66.3754
130.2395,66.2280
130.1946,66.1831
130.1140,66.1025
129.9415,65.9300
129.3620,65.3505
129.3620,65.3505
129.3380,65.3345
129.2664,65.2867
129.2664,65.2867
129.2664,65.2867
129.2405,65.2693
129.2145,65.2520
129.2145,65.2520
129.2145,65.2520
129.2145,65.2520
129.1264,65.2155
129.0507,65.1841
129.0507,65.1841
128.8767,65.1495
128.8767,65.1495
128.8767,65.1495
127.1318,65.1495
127.0647,65.1298
127.0441,65.1132
126.9424,65.0115
126.9424,65.0115
126.7568,64.8816
126.7132,64.8270
126.7060,64.7575
126.7375,64.6951
126.7568,64.6784
126.8725,64.5975
126.9424,64.5485
127.0441,64.4468
127.1054,64.4133
127.1318,64.4105
129.8876,64.4105
Z" /> 
<path style="fill:#000000; fill-opacity:1.0000; stroke:none;fill-rule:evenodd;"
d="M 145.6927,80.6762
145.7133,80.6928
147.5080,82.4875
147.5080,82.4875
147.5477,82.5140
147.6554,82.5860
147.6554,82.5860
147.6555,82.5860
147.7195,82.6125
147.8193,82.6539
147.8675,82.6635
147.9198,82.6739
147.9817,82.7063
148.0163,82.7670
148.0126,82.8368
147.9717,82.8934
147.9067,82.9190
147.8956,82.9195
146.8554,82.9195
146.7883,82.8998
146.7677,82.8832
144.7527,80.8682
144.7192,80.8069
144.7242,80.7372
144.7661,80.6812
144.8315,80.6568
144.8404,80.6565
145.6256,80.6565
Z" /> 
<path style="fill:#000000; fill-opacity:1.0000; stroke:none;fill-rule:evenodd;"
d="M 125.1173,83.4702
125.1379,83.4868
125.1944,83.5433
125.2279,83.6046
125.2229,83.6743
125.1811,83.7303
125.1501,83.7472
125.0187,83.7962
125.0187,83.7962
124.9035,83.8825
124.8820,83.9112
124.8260,83.9530
124.7563,83.9580
124.6950,83.9245
124.4327,83.6622
124.3992,83.6009
124.4042,83.5312
124.4461,83.4752
124.5115,83.4508
124.5204,83.4505
125.0502,83.4505
Z" /> 
<path style="fill:#000000; fill-opacity:1.0000; stroke:none;fill-rule:evenodd;"
d="M 132.2137,80.6762
132.2594,80.7290
132.2694,80.7981
132.2404,80.8617
132.2343,80.8682
131.2535,81.8490
131.2535,81.8490
131.2141,81.9080
131.2141,81.9080
131.1550,81.9964
131.1550,81.9965
131.1220,82.0761
131.1220,82.0761
131.0871,82.1603
131.0871,82.1603
131.0525,82.3343
131.0525,84.0306
131.0328,84.0977
131.0162,84.1183
130.9813,84.1532
130.9200,84.1867
130.8936,84.1895
127.5624,84.1895
127.4954,84.1698
127.4496,84.1170
127.4463,84.1088
127.4048,83.9977
127.4048,83.9977
127.3185,83.8825
127.3185,83.8825
127.2033,83.7962
127.2033,83.7962
127.0719,83.7472
127.0160,83.7053
126.9916,83.6399
127.0064,83.5716
127.0276,83.5433
127.0841,83.4868
127.1454,83.4533
127.1718,83.4505
128.9937,83.4505
128.9937,83.4505
129.1677,83.4159
129.2496,83.3820
129.3315,83.3480
129.4428,83.2737
129.4790,83.2495
132.0357,80.6928
132.0970,80.6593
132.1234,80.6565
132.1466,80.6565
Z" /> 
<path style="fill:#000000; fill-opacity:1.0000; stroke:none;fill-rule:evenodd;"
d="M 191.2857,82.7082
191.3063,82.7248
192.1032,83.5217
192.1367,83.5830
192.1395,83.6094
192.1395,84.9086
192.1198,84.9756
192.0670,85.0214
192.0588,85.0247
191.9477,85.0662
191.9477,85.0662
191.8325,85.1525
191.8325,85.1525
191.7462,85.2677
191.7462,85.2677
191.6972,85.3991
191.6553,85.4550
191.5899,85.4794
191.5216,85.4646
191.4933,85.4434
191.4368,85.3869
191.4033,85.3256
191.4005,85.2992
191.4005,84.1123
191.4005,84.1123
191.3659,83.9383
191.3659,83.9383
191.2980,83.7745
191.2980,83.7744
191.1995,83.6270
191.1441,83.5716
191.0740,83.5015
190.9884,83.4159
190.6930,83.1205
190.6930,83.1205
190.6662,83.1026
190.5865,83.0493
190.5865,83.0493
190.5865,83.0493
190.5455,83.0220
190.5455,83.0220
190.4636,82.9880
190.4636,82.9880
190.3817,82.9541
190.3817,82.9541
190.2812,82.9341
190.2193,82.9017
190.1847,82.8410
190.1884,82.7712
190.2293,82.7146
190.2943,82.6890
190.3054,82.6885
191.2186,82.6885
Z" /> 
<path style="fill:#000000; fill-opacity:1.0000; stroke:none;fill-rule:evenodd;"
d="M 191.6243,87.2481
191.6803,87.2899
191.6972,87.3209
191.7462,87.4523
191.7462,87.4523
191.8325,87.5675
191.8325,87.5675
191.9477,87.6538
191.9477,87.6538
192.0588,87.6953
192.1148,87.7371
192.1392,87.8026
192.1395,87.8114
192.1395,89.9886
192.1198,90.0556
192.0670,90.1014
192.0588,90.1047
191.9477,90.1462
191.9477,90.1462
191.8325,90.2325
191.8325,90.2325
191.7462,90.3477
191.7462,90.3477
191.6972,90.4791
191.6553,90.5350
191.5899,90.5594
191.5216,90.5446
191.4933,90.5234
191.4368,90.4669
191.4033,90.4056
191.4005,90.3792
191.4005,87.4208
191.4202,87.3537
191.4368,87.3331
191.4524,87.3175
191.4933,87.2766
191.5546,87.2431
Z" /> 
<path style="fill:#000000; fill-opacity:1.0000; stroke:none;fill-rule:evenodd;"
d="M 184.2349,66.7065
184.2516,66.7258
184.3815,66.9114
184.3815,66.9114
184.4832,67.0131
184.5167,67.0744
184.5195,67.1008
184.5195,68.1607
184.5541,68.3347
184.5541,68.3347
184.5574,68.3426
184.5625,68.3549
184.5625,68.3549
184.5625,68.3549
184.6220,68.4985
184.6238,68.5013
184.6238,68.5013
184.6238,68.5013
184.6959,68.6091
184.7205,68.6460
186.7510,70.6765
186.7510,70.6765
186.7510,70.6765
186.8247,70.7257
186.8247,70.7257
186.8985,70.7750
186.9465,70.7949
187.0623,70.8429
187.2363,70.8775
187.2363,70.8775
187.2363,70.8775
187.2363,70.8775
194.0126,70.8775
194.0797,70.8972
194.1003,70.9138
195.2782,72.0917
195.3117,72.1530
195.3145,72.1794
195.3145,93.4286
195.2948,93.4957
195.2782,93.5163
194.8623,93.9322
194.8010,93.9657
194.7746,93.9685
154.8564,93.9685
154.7893,93.9488
154.7687,93.9322
154.2258,93.3893
154.1923,93.3280
154.1895,93.3016
154.1895,90.8433
154.1895,90.8433
154.1549,90.6693
154.1549,90.6693
154.0870,90.5055
154.0870,90.5054
153.9885,90.3580
153.9390,90.3085
153.8630,90.2325
153.6125,89.9820
152.3390,88.7085
152.3390,88.7085
152.2800,88.6691
152.2800,88.6691
152.1915,88.6100
152.1915,88.6100
152.1096,88.5760
152.1096,88.5760
152.0277,88.5421
152.0277,88.5421
151.8537,88.5075
151.8537,88.5075
151.8537,88.5075
143.8074,88.5075
143.7403,88.4878
143.7197,88.4712
141.7798,86.5313
141.7463,86.4700
141.7435,86.4436
141.7435,84.3020
141.7632,84.2350
141.7798,84.2144
141.8430,84.1511
141.9736,83.9647
142.0697,83.7585
142.1286,83.5387
142.1485,83.3120
142.1451,83.2737
142.1286,83.0853
142.1286,83.0853
142.0839,82.9184
142.0697,82.8655
142.0697,82.8655
142.0563,82.8368
141.9736,82.6593
141.8430,82.4729
141.8430,82.4729
141.7624,82.3922
141.7289,82.3309
141.7339,82.2612
141.7757,82.2052
141.8412,82.1808
141.8500,82.1805
143.4666,82.1805
143.5337,82.2002
143.5543,82.2168
145.7315,84.3940
145.8570,84.5195
145.8570,84.5195
146.0044,84.6180
146.0045,84.6180
146.1274,84.6689
146.1683,84.6859
146.1683,84.6859
146.1683,84.6859
146.3423,84.7205
146.3423,84.7205
146.3423,84.7205
189.4755,84.7205
189.5425,84.7402
189.5883,84.7930
189.5995,84.8445
189.5995,85.2992
189.5798,85.3663
189.5632,85.3869
189.4615,85.4886
189.3316,85.6742
189.2770,85.7178
189.2075,85.7250
189.1451,85.6935
189.1284,85.6742
188.9985,85.4886
188.8314,85.3215
188.8314,85.3215
188.6378,85.1860
188.6378,85.1860
188.6378,85.1860
188.4237,85.0861
188.4237,85.0861
188.4237,85.0861
188.1954,85.0249
188.1954,85.0249
187.9600,85.0043
187.9600,85.0043
187.7246,85.0249
187.7246,85.0249
187.4963,85.0861
187.4963,85.0861
187.2822,85.1860
187.2822,85.1860
187.0886,85.3215
186.9215,85.4886
186.7916,85.6742
186.7370,85.7178
186.6675,85.7250
186.6051,85.6935
186.5884,85.6742
186.4585,85.4886
186.2914,85.3215
186.2914,85.3215
186.0978,85.1860
186.0978,85.1860
186.0978,85.1860
185.8837,85.0861
185.8837,85.0861
185.8837,85.0861
185.6554,85.0249
185.6554,85.0249
185.4200,85.0043
185.4200,85.0043
185.1846,85.0249
185.1846,85.0249
184.9563,85.0861
184.9563,85.0861
184.7422,85.1860
184.7422,85.1860
184.5486,85.3215
184.3815,85.4886
184.2516,85.6742
184.1970,85.7178
184.1275,85.7250
184.0651,85.6935
184.0484,85.6742
183.9185,85.4886
183.7514,85.3215
183.7514,85.3215
183.5578,85.1860
183.5578,85.1860
183.5578,85.1860
183.3437,85.0861
183.3437,85.0861
183.3437,85.0861
183.1154,85.0249
183.1154,85.0249
182.8800,85.0043
182.8800,85.0043
182.6446,85.0249
182.6446,85.0249
182.4163,85.0861
182.4163,85.0861
182.2022,85.1860
182.2022,85.1860
182.0086,85.3215
181.8415,85.4886
181.7116,85.6742
181.6570,85.7178
181.5875,85.7250
181.5251,85.6935
181.5084,85.6742
181.3785,85.4886
181.2114,85.3215
181.2114,85.3215
181.0178,85.1860
181.0178,85.1860
181.0178,85.1860
180.8037,85.0861
180.8037,85.0861
180.8037,85.0861
180.5754,85.0249
180.5754,85.0249
180.3400,85.0043
180.3400,85.0043
180.1046,85.0249
180.1046,85.0249
179.8763,85.0861
179.8763,85.0861
179.6622,85.1860
179.6622,85.1860
179.4686,85.3215
179.3015,85.4886
179.1716,85.6742
179.1170,85.7178
179.0475,85.7250
178.9851,85.6935
178.9684,85.6742
178.8385,85.4886
178.6714,85.3215
178.6714,85.3215
178.4778,85.1860
178.4778,85.1860
178.4778,85.1860
178.2637,85.0861
178.2637,85.0861
178.2637,85.0861
178.0354,85.0249
178.0354,85.0249
177.8000,85.0043
177.8000,85.0043
177.5646,85.0249
177.5646,85.0249
177.3363,85.0861
177.3363,85.0861
177.1222,85.1860
177.1222,85.1860
176.9286,85.3215
176.7615,85.4886
176.6316,85.6742
176.5770,85.7178
176.5075,85.7250
176.4451,85.6935
176.4284,85.6742
176.2985,85.4886
176.1314,85.3215
176.1314,85.3215
175.9378,85.1860
175.9378,85.1860
175.9378,85.1860
175.7237,85.0861
175.7237,85.0861
175.7237,85.0861
175.4954,85.0249
175.4954,85.0249
175.2600,85.0043
175.2600,85.0043
175.0246,85.0249
175.0246,85.0249
174.7963,85.0861
174.7963,85.0861
174.5822,85.1860
174.5822,85.1860
174.3886,85.3215
174.2215,85.4886
174.0916,85.6742
174.0370,85.7178
173.9675,85.7250
173.9051,85.6935
173.8884,85.6742
173.7585,85.4886
173.5914,85.3215
173.5914,85.3215
173.3978,85.1860
173.3978,85.1860
173.3978,85.1860
173.1837,85.0861
173.1837,85.0861
173.1837,85.0861
172.9554,85.0249
172.9554,85.0249
172.7200,85.0043
172.7200,85.0043
172.4846,85.0249
172.4846,85.0249
172.2563,85.0861
172.2563,85.0861
172.0422,85.1860
172.0422,85.1860
171.8486,85.3215
171.6815,85.4886
171.5516,85.6742
171.4970,85.7178
171.4275,85.7250
171.3651,85.6935
171.3484,85.6742
171.2185,85.4886
171.0514,85.3215
171.0514,85.3215
170.8578,85.1860
170.8578,85.1860
170.8578,85.1860
170.6437,85.0861
170.6437,85.0861
170.6437,85.0861
170.4154,85.0249
170.4154,85.0249
170.1800,85.0043
170.1800,85.0043
169.9446,85.0249
169.9446,85.0249
169.7163,85.0861
169.7163,85.0861
169.5022,85.1860
169.5022,85.1860
169.3086,85.3215
169.1415,85.4886
169.0116,85.6742
168.9570,85.7178
168.8875,85.7250
168.8251,85.6935
168.8084,85.6742
168.6785,85.4886
168.5114,85.3215
168.5114,85.3215
168.3178,85.1860
168.3178,85.1860
168.3178,85.1860
168.1037,85.0861
168.1037,85.0861
168.1037,85.0861
167.8754,85.0249
167.8754,85.0249
167.6400,85.0043
167.6400,85.0043
167.4046,85.0249
167.4046,85.0249
167.1763,85.0861
167.1763,85.0861
166.9622,85.1860
166.9622,85.1860
166.7686,85.3215
166.6015,85.4886
166.4716,85.6742
166.4170,85.7178
166.3475,85.7250
166.2851,85.6935
166.2684,85.6742
166.1385,85.4886
165.9714,85.3215
165.9714,85.3215
165.7778,85.1860
165.7778,85.1860
165.7778,85.1860
165.5637,85.0861
165.5637,85.0861
165.5637,85.0861
165.3354,85.0249
165.3354,85.0249
165.1000,85.0043
165.1000,85.0043
164.8646,85.0249
164.8646,85.0249
164.6363,85.0861
164.6363,85.0861
164.4222,85.1860
164.4222,85.1860
164.2286,85.3215
164.0615,85.4886
163.9316,85.6742
163.8770,85.7178
163.8075,85.7250
163.7451,85.6935
163.7284,85.6742
163.5985,85.4886
163.4314,85.3215
163.4314,85.3215
163.2378,85.1860
163.2378,85.1860
163.2378,85.1860
163.0237,85.0861
163.0237,85.0861
163.0237,85.0861
162.7954,85.0249
162.7954,85.0249
162.5600,85.0043
162.5600,85.0043
162.3246,85.0249
162.3246,85.0249
162.0963,85.0861
162.0963,85.0861
161.8822,85.1860
161.8822,85.1860
161.6886,85.3215
161.5215,85.4886
161.3916,85.6742
161.3370,85.7178
161.2675,85.7250
161.2051,85.6935
161.1884,85.6742
161.0585,85.4886
160.8914,85.3215
160.8914,85.3215
160.6978,85.1860
160.6978,85.1860
160.6978,85.1860
160.4837,85.0861
160.4837,85.0861
160.4837,85.0861
160.2554,85.0249
160.2554,85.0249
160.0200,85.0043
160.0200,85.0043
159.7846,85.0249
159.7846,85.0249
159.5563,85.0861
159.5563,85.0861
159.3422,85.1860
159.3422,85.1860
159.1486,85.3215
158.9815,85.4886
158.8516,85.6742
158.7970,85.7178
158.7275,85.7250
158.6651,85.6935
158.6484,85.6742
158.5185,85.4886
158.3514,85.3215
158.3514,85.3215
158.1578,85.1860
158.1578,85.1860
158.1578,85.1860
157.9437,85.0861
157.9437,85.0861
157.9437,85.0861
157.7154,85.0249
157.7154,85.0249
157.4800,85.0043
157.4800,85.0043
157.2446,85.0249
157.2446,85.0249
157.0163,85.0861
157.0163,85.0861
156.8022,85.1860
156.8022,85.1860
156.6086,85.3215
156.4415,85.4886
156.3116,85.6742
156.2570,85.7178
156.1875,85.7250
156.1251,85.6935
156.1084,85.6742
155.9785,85.4886
155.8114,85.3215
155.8114,85.3215
155.6178,85.1860
155.6178,85.1860
155.6178,85.1860
155.4037,85.0861
155.4037,85.0861
155.4037,85.0861
155.1754,85.0249
155.1754,85.0249
154.9400,85.0043
154.9400,85.0043
154.7046,85.0249
154.7046,85.0249
154.4763,85.0861
154.4763,85.0861
154.2622,85.1860
154.2622,85.1860
154.0686,85.3215
153.9015,85.4886
153.7716,85.6742
153.7170,85.7178
153.6475,85.7250
153.5851,85.6935
153.5684,85.6742
153.4385,85.4886
153.2714,85.3215
153.2714,85.3215
153.0778,85.1860
153.0778,85.1860
153.0778,85.1860
152.8637,85.0861
152.8637,85.0861
152.8637,85.0861
152.6354,85.0249
152.6354,85.0249
152.4000,85.0043
152.4000,85.0043
152.1646,85.0249
152.1646,85.0249
151.9363,85.0861
151.9363,85.0861
151.7222,85.1860
151.7222,85.1860
151.5286,85.3215
151.3615,85.4886
151.2316,85.6742
151.1770,85.7178
151.1075,85.7250
151.0451,85.6935
151.0284,85.6742
150.8985,85.4886
150.7314,85.3215
150.7314,85.3215
150.5378,85.1860
150.5378,85.1860
150.5378,85.1860
150.3237,85.0861
150.3237,85.0861
150.3237,85.0861
150.0954,85.0249
150.0954,85.0249
149.8600,85.0043
149.8600,85.0043
149.6246,85.0249
149.6246,85.0249
149.3963,85.0861
149.3963,85.0861
149.1822,85.1860
149.1822,85.1860
148.9886,85.3215
148.8215,85.4886
148.6916,85.6742
148.6370,85.7178
148.5675,85.7250
148.5051,85.6935
148.4884,85.6742
148.3585,85.4886
148.1914,85.3215
148.1914,85.3215
147.9978,85.1860
147.9978,85.1860
147.9978,85.1860
147.7837,85.0861
147.7837,85.0861
147.7837,85.0861
147.5554,85.0249
147.5554,85.0249
147.3200,85.0043
147.3200,85.0043
147.0846,85.0249
147.0846,85.0249
146.8563,85.0861
146.8563,85.0861
146.6422,85.1860
146.6422,85.1860
146.4486,85.3215
146.2815,85.4886
146.1460,85.6822
146.1460,85.6822
146.0461,85.8963
146.0461,85.8963
145.9849,86.1246
145.9849,86.1246
145.9643,86.3600
145.9643,86.3600
145.9849,86.5954
145.9849,86.5954
146.0461,86.8237
146.0461,86.8237
146.0461,86.8237
146.1260,86.9950
146.1460,87.0378
146.1460,87.0378
146.2301,87.1580
146.2815,87.2314
146.4486,87.3985
146.5454,87.4663
146.6422,87.5340
146.6422,87.5340
146.6422,87.5340
146.8563,87.6339
147.0846,87.6951
147.2578,87.7102
147.3200,87.7157
147.3200,87.7157
147.3200,87.7157
147.3592,87.7122
147.5554,87.6951
147.7837,87.6339
147.9978,87.5340
148.1914,87.3985
148.3585,87.2314
148.4884,87.0458
148.5430,87.0022
148.6125,86.9950
148.6749,87.0265
148.6916,87.0458
148.8215,87.2314
148.8215,87.2314
148.9886,87.3985
149.0854,87.4663
149.1822,87.5340
149.1822,87.5340
149.1822,87.5340
149.3963,87.6339
149.6246,87.6951
149.7978,87.7102
149.8600,87.7157
149.8600,87.7157
149.8600,87.7157
149.8992,87.7122
150.0954,87.6951
150.3237,87.6339
150.5378,87.5340
150.7314,87.3985
150.8985,87.2314
151.0284,87.0458
151.0830,87.0022
151.1525,86.9950
151.2149,87.0265
151.2316,87.0458
151.3615,87.2314
151.3615,87.2314
151.5286,87.3985
151.6254,87.4663
151.7222,87.5340
151.7222,87.5340
151.7222,87.5340
151.9363,87.6339
152.1646,87.6951
152.3378,87.7102
152.4000,87.7157
152.4000,87.7157
152.4000,87.7157
152.4392,87.7122
152.6354,87.6951
152.8637,87.6339
153.0778,87.5340
153.2714,87.3985
153.4385,87.2314
153.5684,87.0458
153.6230,87.0022
153.6925,86.9950
153.7549,87.0265
153.7716,87.0458
153.9015,87.2314
153.9015,87.2314
154.0686,87.3985
154.1654,87.4663
154.2622,87.5340
154.2622,87.5340
154.2622,87.5340
154.4763,87.6339
154.7046,87.6951
154.8778,87.7102
154.9400,87.7157
154.9400,87.7157
154.9400,87.7157
154.9792,87.7122
155.1754,87.6951
155.4037,87.6339
155.6178,87.5340
155.8114,87.3985
155.9785,87.2314
156.1084,87.0458
156.1630,87.0022
156.2325,86.9950
156.2949,87.0265
156.3116,87.0458
156.4415,87.2314
156.4415,87.2314
156.6086,87.3985
156.7054,87.4663
156.8022,87.5340
156.8022,87.5340
156.8022,87.5340
157.0163,87.6339
157.2446,87.6951
157.4178,87.7102
157.4800,87.7157
157.4800,87.7157
157.4800,87.7157
157.5192,87.7122
157.7154,87.6951
157.9437,87.6339
158.1578,87.5340
158.3514,87.3985
158.5185,87.2314
158.6484,87.0458
158.7030,87.0022
158.7725,86.9950
158.8349,87.0265
158.8516,87.0458
158.9815,87.2314
158.9815,87.2314
159.1486,87.3985
159.2454,87.4663
159.3422,87.5340
159.3422,87.5340
159.3422,87.5340
159.5563,87.6339
159.7846,87.6951
159.9578,87.7102
160.0200,87.7157
160.0200,87.7157
160.0200,87.7157
160.0592,87.7122
160.2554,87.6951
160.4837,87.6339
160.6978,87.5340
160.8914,87.3985
161.0585,87.2314
161.1884,87.0458
161.2430,87.0022
161.3125,86.9950
161.3749,87.0265
161.3916,87.0458
161.5215,87.2314
161.5215,87.2314
161.6886,87.3985
161.7854,87.4663
161.8822,87.5340
161.8822,87.5340
161.8822,87.5340
162.0963,87.6339
162.3246,87.6951
162.4978,87.7102
162.5600,87.7157
162.5600,87.7157
162.5600,87.7157
162.5992,87.7122
162.7954,87.6951
163.0237,87.6339
163.2378,87.5340
163.4314,87.3985
163.5985,87.2314
163.7284,87.0458
163.7830,87.0022
163.8525,86.9950
163.9149,87.0265
163.9316,87.0458
164.0615,87.2314
164.0615,87.2314
164.2286,87.3985
164.3254,87.4663
164.4222,87.5340
164.4222,87.5340
164.4222,87.5340
164.6363,87.6339
164.8646,87.6951
165.0378,87.7102
165.1000,87.7157
165.1000,87.7157
165.1000,87.7157
165.1392,87.7122
165.3354,87.6951
165.5637,87.6339
165.7778,87.5340
165.9714,87.3985
166.1385,87.2314
166.2684,87.0458
166.3230,87.0022
166.3925,86.9950
166.4549,87.0265
166.4716,87.0458
166.6015,87.2314
166.6015,87.2314
166.7686,87.3985
166.8654,87.4663
166.9622,87.5340
166.9622,87.5340
166.9622,87.5340
167.1763,87.6339
167.4046,87.6951
167.5778,87.7102
167.6400,87.7157
167.6400,87.7157
167.6400,87.7157
167.6792,87.7122
167.8754,87.6951
168.1037,87.6339
168.3178,87.5340
168.5114,87.3985
168.6785,87.2314
168.8084,87.0458
168.8630,87.0022
168.9325,86.9950
168.9949,87.0265
169.0116,87.0458
169.1415,87.2314
169.1415,87.2314
169.3086,87.3985
169.4054,87.4663
169.5022,87.5340
169.5022,87.5340
169.5022,87.5340
169.7163,87.6339
169.9446,87.6951
170.1178,87.7102
170.1800,87.7157
170.1800,87.7157
170.1800,87.7157
170.2192,87.7122
170.4154,87.6951
170.6437,87.6339
170.8578,87.5340
171.0514,87.3985
171.2185,87.2314
171.3484,87.0458
171.4030,87.0022
171.4725,86.9950
171.5349,87.0265
171.5516,87.0458
171.6815,87.2314
171.6815,87.2314
171.8486,87.3985
171.9454,87.4663
172.0422,87.5340
172.0422,87.5340
172.0422,87.5340
172.2563,87.6339
172.4846,87.6951
172.6578,87.7102
172.7200,87.7157
172.7200,87.7157
172.7200,87.7157
172.7592,87.7122
172.9554,87.6951
173.1837,87.6339
173.3978,87.5340
173.5914,87.3985
173.7585,87.2314
173.8884,87.0458
173.9430,87.0022
174.0125,86.9950
174.0749,87.0265
174.0916,87.0458
174.2215,87.2314
174.2215,87.2314
174.3886,87.3985
174.4854,87.4663
174.5822,87.5340
174.5822,87.5340
174.5822,87.5340
174.7963,87.6339
175.0246,87.6951
175.1978,87.7102
175.2600,87.7157
175.2600,87.7157
175.2600,87.7157
175.2992,87.7122
175.4954,87.6951
175.7237,87.6339
175.9378,87.5340
176.1314,87.3985
176.2985,87.2314
176.4284,87.0458
176.4830,87.0022
176.5525,86.9950
176.6149,87.0265
176.6316,87.0458
176.7615,87.2314
176.7615,87.2314
176.9286,87.3985
177.0254,87.4663
177.1222,87.5340
177.1222,87.5340
177.1222,87.5340
177.3363,87.6339
177.5646,87.6951
177.7378,87.7102
177.8000,87.7157
177.8000,87.7157
177.8000,87.7157
177.8392,87.7122
178.0354,87.6951
178.2637,87.6339
178.4778,87.5340
178.6714,87.3985
178.8385,87.2314
178.9684,87.0458
179.0230,87.0022
179.0925,86.9950
179.1549,87.0265
179.1716,87.0458
179.3015,87.2314
179.3015,87.2314
179.4686,87.3985
179.5654,87.4663
179.6622,87.5340
179.6622,87.5340
179.6622,87.5340
179.8763,87.6339
180.1046,87.6951
180.2778,87.7102
180.3400,87.7157
180.3400,87.7157
180.3400,87.7157
180.3792,87.7122
180.5754,87.6951
180.8037,87.6339
181.0178,87.5340
181.2114,87.3985
181.3785,87.2314
181.5084,87.0458
181.5630,87.0022
181.6325,86.9950
181.6949,87.0265
181.7116,87.0458
181.8415,87.2314
181.8415,87.2314
182.0086,87.3985
182.1054,87.4663
182.2022,87.5340
182.2022,87.5340
182.2022,87.5340
182.4163,87.6339
182.6446,87.6951
182.8178,87.7102
182.8800,87.7157
182.8800,87.7157
182.8800,87.7157
182.9192,87.7122
183.1154,87.6951
183.3437,87.6339
183.5578,87.5340
183.7514,87.3985
183.9185,87.2314
184.0484,87.0458
184.1030,87.0022
184.1725,86.9950
184.2349,87.0265
184.2516,87.0458
184.3815,87.2314
184.3815,87.2314
184.5486,87.3985
184.6454,87.4663
184.7422,87.5340
184.7422,87.5340
184.7422,87.5340
184.9563,87.6339
185.1846,87.6951
185.3578,87.7102
185.4200,87.7157
185.4200,87.7157
185.4200,87.7157
185.4592,87.7122
185.6554,87.6951
185.8837,87.6339
186.0978,87.5340
186.2914,87.3985
186.4585,87.2314
186.5884,87.0458
186.6430,87.0022
186.7125,86.9950
186.7749,87.0265
186.7916,87.0458
186.9215,87.2314
186.9215,87.2314
187.0886,87.3985
187.1854,87.4663
187.2822,87.5340
187.2822,87.5340
187.2822,87.5340
187.4963,87.6339
187.7246,87.6951
187.8978,87.7102
187.9600,87.7157
187.9600,87.7157
187.9600,87.7157
187.9992,87.7122
188.1954,87.6951
188.4237,87.6339
188.6378,87.5340
188.8314,87.3985
188.9985,87.2314
189.1284,87.0458
189.1830,87.0022
189.2525,86.9950
189.3149,87.0265
189.3316,87.0458
189.4615,87.2314
189.4615,87.2314
189.5632,87.3331
189.5967,87.3944
189.5995,87.4208
189.5995,90.3792
189.5798,90.4463
189.5632,90.4669
189.4615,90.5686
189.3316,90.7542
189.2770,90.7978
189.2075,90.8050
189.1451,90.7735
189.1284,90.7542
188.9985,90.5686
188.8314,90.4015
188.8314,90.4015
188.6378,90.2660
188.6378,90.2660
188.6378,90.2660
188.4237,90.1661
188.4237,90.1661
188.4237,90.1661
188.1954,90.1049
188.1954,90.1049
187.9600,90.0843
187.9600,90.0843
187.7246,90.1049
187.7246,90.1049
187.4963,90.1661
187.4963,90.1661
187.2822,90.2660
187.2822,90.2660
187.0886,90.4015
186.9215,90.5686
186.7916,90.7542
186.7370,90.7978
186.6675,90.8050
186.6051,90.7735
186.5884,90.7542
186.4585,90.5686
186.2914,90.4015
186.2914,90.4015
186.0978,90.2660
186.0978,90.2660
186.0978,90.2660
185.8837,90.1661
185.8837,90.1661
185.8837,90.1661
185.6554,90.1049
185.6554,90.1049
185.4200,90.0843
185.4200,90.0843
185.1846,90.1049
185.1846,90.1049
184.9563,90.1661
184.9563,90.1661
184.7422,90.2660
184.7422,90.2660
184.5486,90.4015
184.3815,90.5686
184.2516,90.7542
184.1970,90.7978
184.1275,90.8050
184.0651,90.7735
184.0484,90.7542
183.9185,90.5686
183.7514,90.4015
183.7514,90.4015
183.5578,90.2660
183.5578,90.2660
183.5578,90.2660
183.3437,90.1661
183.3437,90.1661
183.3437,90.1661
183.1154,90.1049
183.1154,90.1049
182.8800,90.0843
182.8800,90.0843
182.6446,90.1049
182.6446,90.1049
182.4163,90.1661
182.4163,90.1661
182.2022,90.2660
182.2022,90.2660
182.0086,90.4015
181.8415,90.5686
181.7116,90.7542
181.6570,90.7978
181.5875,90.8050
181.5251,90.7735
181.5084,90.7542
181.3785,90.5686
181.2114,90.4015
181.2114,90.4015
181.0178,90.2660
181.0178,90.2660
181.0178,90.2660
180.8037,90.1661
180.8037,90.1661
180.8037,90.1661
180.5754,90.1049
180.5754,90.1049
180.3400,90.0843
180.3400,90.0843
180.1046,90.1049
180.1046,90.1049
179.8763,90.1661
179.8763,90.1661
179.6622,90.2660
179.6622,90.2660
179.4686,90.4015
179.3015,90.5686
179.1716,90.7542
179.1170,90.7978
179.0475,90.8050
178.9851,90.7735
178.9684,90.7542
178.8385,90.5686
178.6714,90.4015
178.6714,90.4015
178.4778,90.2660
178.4778,90.2660
178.4778,90.2660
178.2637,90.1661
178.2637,90.1661
178.2637,90.1661
178.0354,90.1049
178.0354,90.1049
177.8000,90.0843
177.8000,90.0843
177.5646,90.1049
177.5646,90.1049
177.3363,90.1661
177.3363,90.1661
177.1222,90.2660
177.1222,90.2660
176.9286,90.4015
176.7615,90.5686
176.6316,90.7542
176.5770,90.7978
176.5075,90.8050
176.4451,90.7735
176.4284,90.7542
176.2985,90.5686
176.1314,90.4015
176.1314,90.4015
175.9378,90.2660
175.9378,90.2660
175.9378,90.2660
175.7237,90.1661
175.7237,90.1661
175.7237,90.1661
175.4954,90.1049
175.4954,90.1049
175.2600,90.0843
175.2600,90.0843
175.0246,90.1049
175.0246,90.1049
174.7963,90.1661
174.7963,90.1661
174.5822,90.2660
174.5822,90.2660
174.3886,90.4015
174.2215,90.5686
174.0916,90.7542
174.0370,90.7978
173.9675,90.8050
173.9051,90.7735
173.8884,90.7542
173.7585,90.5686
173.5914,90.4015
173.5914,90.4015
173.3978,90.2660
173.3978,90.2660
173.3978,90.2660
173.1837,90.1661
173.1837,90.1661
173.1837,90.1661
172.9554,90.1049
172.9554,90.1049
172.7200,90.0843
172.7200,90.0843
172.4846,90.1049
172.4846,90.1049
172.2563,90.1661
172.2563,90.1661
172.0422,90.2660
172.0422,90.2660
171.8486,90.4015
171.6815,90.5686
171.5516,90.7542
171.4970,90.7978
171.4275,90.8050
171.3651,90.7735
171.3484,90.7542
171.2185,90.5686
171.0514,90.4015
171.0514,90.4015
170.8578,90.2660
170.8578,90.2660
170.8578,90.2660
170.6437,90.1661
170.6437,90.1661
170.6437,90.1661
170.4154,90.1049
170.4154,90.1049
170.1800,90.0843
170.1800,90.0843
169.9446,90.1049
169.9446,90.1049
169.7163,90.1661
169.7163,90.1661
169.5022,90.2660
169.5022,90.2660
169.3086,90.4015
169.1415,90.5686
169.0116,90.7542
168.9570,90.7978
168.8875,90.8050
168.8251,90.7735
168.8084,90.7542
168.6785,90.5686
168.5114,90.4015
168.5114,90.4015
168.3178,90.2660
168.3178,90.2660
168.3178,90.2660
168.1037,90.1661
168.1037,90.1661
168.1037,90.1661
167.8754,90.1049
167.8754,90.1049
167.6400,90.0843
167.6400,90.0843
167.4046,90.1049
167.4046,90.1049
167.1763,90.1661
167.1763,90.1661
166.9622,90.2660
166.9622,90.2660
166.7686,90.4015
166.6015,90.5686
166.4716,90.7542
166.4170,90.7978
166.3475,90.8050
166.2851,90.7735
166.2684,90.7542
166.1385,90.5686
165.9714,90.4015
165.9714,90.4015
165.7778,90.2660
165.7778,90.2660
165.7778,90.2660
165.5637,90.1661
165.5637,90.1661
165.5637,90.1661
165.3354,90.1049
165.3354,90.1049
165.1000,90.0843
165.1000,90.0843
164.8646,90.1049
164.8646,90.1049
164.6363,90.1661
164.6363,90.1661
164.4222,90.2660
164.4222,90.2660
164.2286,90.4015
164.0615,90.5686
163.9316,90.7542
163.8770,90.7978
163.8075,90.8050
163.7451,90.7735
163.7284,90.7542
163.5985,90.5686
163.4314,90.4015
163.4314,90.4015
163.2378,90.2660
163.2378,90.2660
163.2378,90.2660
163.0237,90.1661
163.0237,90.1661
163.0237,90.1661
162.7954,90.1049
162.7954,90.1049
162.5600,90.0843
162.5600,90.0843
162.3246,90.1049
162.3246,90.1049
162.0963,90.1661
162.0963,90.1661
161.8822,90.2660
161.8822,90.2660
161.6886,90.4015
161.5215,90.5686
161.3916,90.7542
161.3370,90.7978
161.2675,90.8050
161.2051,90.7735
161.1884,90.7542
161.0585,90.5686
160.8914,90.4015
160.8914,90.4015
160.6978,90.2660
160.6978,90.2660
160.6978,90.2660
160.4837,90.1661
160.4837,90.1661
160.4837,90.1661
160.2554,90.1049
160.2554,90.1049
160.0200,90.0843
160.0200,90.0843
159.7846,90.1049
159.7846,90.1049
159.5563,90.1661
159.5563,90.1661
159.3422,90.2660
159.3422,90.2660
159.1486,90.4015
158.9815,90.5686
158.8516,90.7542
158.7970,90.7978
158.7275,90.8050
158.6651,90.7735
158.6484,90.7542
158.5185,90.5686
158.3514,90.4015
158.3514,90.4015
158.1578,90.2660
158.1578,90.2660
158.1578,90.2660
157.9437,90.1661
157.9437,90.1661
157.9437,90.1661
157.7154,90.1049
157.7154,90.1049
157.4800,90.0843
157.4800,90.0843
157.2446,90.1049
157.2446,90.1049
157.0163,90.1661
157.0163,90.1661
156.8022,90.2660
156.8022,90.2660
156.6086,90.4015
156.4415,90.5686
156.3060,90.7622
156.3060,90.7622
156.2061,90.9763
156.2061,90.9763
156.1449,91.2046
156.1449,91.2046
156.1243,91.4400
156.1243,91.4400
156.1449,91.6754
156.1449,91.6754
156.2061,91.9037
156.2061,91.9037
156.2061,91.9037
156.2100,91.9120
156.3060,92.1178
156.3060,92.1178
156.4143,92.2725
156.4415,92.3114
156.6086,92.4785
156.7054,92.5463
156.8022,92.6140
156.8022,92.6140
156.8022,92.6140
157.0163,92.7139
157.2446,92.7751
157.4210,92.7905
157.4800,92.7957
157.4800,92.7957
157.4800,92.7957
157.5390,92.7905
157.7154,92.7751
157.9437,92.7139
158.1578,92.6140
158.3514,92.4785
158.5185,92.3114
158.6484,92.1258
158.7030,92.0822
158.7725,92.0750
158.8349,92.1065
158.8516,92.1258
158.9815,92.3114
158.9815,92.3114
159.1486,92.4785
159.2454,92.5463
159.3422,92.6140
159.3422,92.6140
159.3422,92.6140
159.5563,92.7139
159.7846,92.7751
159.9610,92.7905
160.0200,92.7957
160.0200,92.7957
160.0200,92.7957
160.0790,92.7905
160.2554,92.7751
160.4837,92.7139
160.6978,92.6140
160.8914,92.4785
161.0585,92.3114
161.1884,92.1258
161.2430,92.0822
161.3125,92.0750
161.3749,92.1065
161.3916,92.1258
161.5215,92.3114
161.5215,92.3114
161.6886,92.4785
161.7854,92.5463
161.8822,92.6140
161.8822,92.6140
161.8822,92.6140
162.0963,92.7139
162.3246,92.7751
162.5010,92.7905
162.5600,92.7957
162.5600,92.7957
162.5600,92.7957
162.6190,92.7905
162.7954,92.7751
163.0237,92.7139
163.2378,92.6140
163.4314,92.4785
163.5985,92.3114
163.7284,92.1258
163.7830,92.0822
163.8525,92.0750
163.9149,92.1065
163.9316,92.1258
164.0615,92.3114
164.0615,92.3114
164.2286,92.4785
164.3254,92.5463
164.4222,92.6140
164.4222,92.6140
164.4222,92.6140
164.6363,92.7139
164.8646,92.7751
165.0410,92.7905
165.1000,92.7957
165.1000,92.7957
165.1000,92.7957
165.1590,92.7905
165.3354,92.7751
165.5637,92.7139
165.7778,92.6140
165.9714,92.4785
166.1385,92.3114
166.2684,92.1258
166.3230,92.0822
166.3925,92.0750
166.4549,92.1065
166.4716,92.1258
166.6015,92.3114
166.6015,92.3114
166.7686,92.4785
166.8654,92.5463
166.9622,92.6140
166.9622,92.6140
166.9622,92.6140
167.1763,92.7139
167.4046,92.7751
167.5810,92.7905
167.6400,92.7957
167.6400,92.7957
167.6400,92.7957
167.6990,92.7905
167.8754,92.7751
168.1037,92.7139
168.3178,92.6140
168.5114,92.4785
168.6785,92.3114
168.8084,92.1258
168.8630,92.0822
168.9325,92.0750
168.9949,92.1065
169.0116,92.1258
169.1415,92.3114
169.1415,92.3114
169.3086,92.4785
169.4054,92.5463
169.5022,92.6140
169.5022,92.6140
169.5022,92.6140
169.7163,92.7139
169.9446,92.7751
170.1210,92.7905
170.1800,92.7957
170.1800,92.7957
170.1800,92.7957
170.2390,92.7905
170.4154,92.7751
170.6437,92.7139
170.8578,92.6140
171.0514,92.4785
171.2185,92.3114
171.3484,92.1258
171.4030,92.0822
171.4725,92.0750
171.5349,92.1065
171.5516,92.1258
171.6815,92.3114
171.6815,92.3114
171.8486,92.4785
171.9454,92.5463
172.0422,92.6140
172.0422,92.6140
172.0422,92.6140
172.2563,92.7139
172.4846,92.7751
172.6610,92.7905
172.7200,92.7957
172.7200,92.7957
172.7200,92.7957
172.7790,92.7905
172.9554,92.7751
173.1837,92.7139
173.3978,92.6140
173.5914,92.4785
173.7585,92.3114
173.8884,92.1258
173.9430,92.0822
174.0125,92.0750
174.0749,92.1065
174.0916,92.1258
174.2215,92.3114
174.2215,92.3114
174.3886,92.4785
174.4854,92.5463
174.5822,92.6140
174.5822,92.6140
174.5822,92.6140
174.7963,92.7139
175.0246,92.7751
175.2010,92.7905
175.2600,92.7957
175.2600,92.7957
175.2600,92.7957
175.3190,92.7905
175.4954,92.7751
175.7237,92.7139
175.9378,92.6140
176.1314,92.4785
176.2985,92.3114
176.4284,92.1258
176.4830,92.0822
176.5525,92.0750
176.6149,92.1065
176.6316,92.1258
176.7615,92.3114
176.7615,92.3114
176.9286,92.4785
177.0254,92.5463
177.1222,92.6140
177.1222,92.6140
177.1222,92.6140
177.3363,92.7139
177.5646,92.7751
177.7410,92.7905
177.8000,92.7957
177.8000,92.7957
177.8000,92.7957
177.8590,92.7905
178.0354,92.7751
178.2637,92.7139
178.4778,92.6140
178.6714,92.4785
178.8385,92.3114
178.9684,92.1258
179.0230,92.0822
179.0925,92.0750
179.1549,92.1065
179.1716,92.1258
179.3015,92.3114
179.3015,92.3114
179.4686,92.4785
179.5654,92.5463
179.6622,92.6140
179.6622,92.6140
179.6622,92.6140
179.8763,92.7139
180.1046,92.7751
180.2810,92.7905
180.3400,92.7957
180.3400,92.7957
180.3400,92.7957
180.3990,92.7905
180.5754,92.7751
180.8037,92.7139
181.0178,92.6140
181.2114,92.4785
181.3785,92.3114
181.5084,92.1258
181.5630,92.0822
181.6325,92.0750
181.6949,92.1065
181.7116,92.1258
181.8415,92.3114
181.8415,92.3114
182.0086,92.4785
182.1054,92.5463
182.2022,92.6140
182.2022,92.6140
182.2022,92.6140
182.4163,92.7139
182.6446,92.7751
182.8210,92.7905
182.8800,92.7957
182.8800,92.7957
182.8800,92.7957
182.9390,92.7905
183.1154,92.7751
183.3437,92.7139
183.5578,92.6140
183.7514,92.4785
183.9185,92.3114
184.0484,92.1258
184.1030,92.0822
184.1725,92.0750
184.2349,92.1065
184.2516,92.1258
184.3815,92.3114
184.3815,92.3114
184.5486,92.4785
184.6454,92.5463
184.7422,92.6140
184.7422,92.6140
184.7422,92.6140
184.9563,92.7139
185.1846,92.7751
185.3610,92.7905
185.4200,92.7957
185.4200,92.7957
185.4200,92.7957
185.4790,92.7905
185.6554,92.7751
185.8837,92.7139
186.0978,92.6140
186.2914,92.4785
186.4585,92.3114
186.5884,92.1258
186.6430,92.0822
186.7125,92.0750
186.7749,92.1065
186.7916,92.1258
186.9215,92.3114
186.9215,92.3114
187.0886,92.4785
187.1854,92.5463
187.2822,92.6140
187.2822,92.6140
187.2822,92.6140
187.4963,92.7139
187.7246,92.7751
187.9010,92.7905
187.9600,92.7957
187.9600,92.7957
187.9600,92.7957
188.0190,92.7905
188.1954,92.7751
188.4237,92.7139
188.6378,92.6140
188.8314,92.4785
188.9985,92.3114
189.1284,92.1258
189.1830,92.0822
189.2525,92.0750
189.3149,92.1065
189.3316,92.1258
189.4615,92.3114
189.4615,92.3114
189.6286,92.4785
189.7254,92.5463
189.8222,92.6140
189.8222,92.6140
189.8222,92.6140
190.0363,92.7139
190.2646,92.7751
190.4410,92.7905
190.5000,92.7957
190.5000,92.7957
190.5000,92.7957
190.5590,92.7905
190.7354,92.7751
190.9637,92.7139
191.1778,92.6140
191.3714,92.4785
191.4933,92.3566
191.5546,92.3231
191.6243,92.3281
191.6803,92.3699
191.6972,92.4009
191.7462,92.5323
191.7462,92.5323
191.8325,92.6475
191.8325,92.6475
191.9477,92.7338
191.9477,92.7338
192.0825,92.7841
192.0825,92.7841
192.0894,92.7848
192.1421,92.7905
193.9379,92.7905
193.9975,92.7841
194.1323,92.7338
194.2475,92.6475
194.3338,92.5323
194.3841,92.3975
194.3905,92.3379
194.3905,90.5421
194.3841,90.4825
194.3828,90.4791
194.3338,90.3477
194.3338,90.3477
194.2475,90.2325
194.2475,90.2325
194.1323,90.1462
194.1323,90.1462
194.0212,90.1047
193.9652,90.0629
193.9408,89.9974
193.9405,89.9886
193.9405,87.8114
193.9602,87.7444
194.0130,87.6986
194.0212,87.6953
194.1323,87.6538
194.1323,87.6538
194.1323,87.6538
194.2475,87.5675
194.3338,87.4523
194.3841,87.3175
194.3905,87.2579
194.3905,85.4621
194.3841,85.4025
194.3828,85.3991
194.3338,85.2677
194.3338,85.2677
194.2475,85.1525
194.2475,85.1525
194.1323,85.0662
194.1323,85.0662
194.0212,85.0247
193.9652,84.9829
193.9408,84.9174
193.9405,84.9086
193.9405,83.0963
193.9405,83.0963
193.9059,82.9223
193.9059,82.9223
193.9045,82.9190
193.8824,82.8655
193.8380,82.7585
193.8380,82.7584
193.7395,82.6110
193.7145,82.5860
193.6140,82.4855
193.2888,82.1603
192.2170,81.0885
192.2170,81.0885
192.1902,81.0706
192.1105,81.0173
192.1105,81.0173
192.1105,81.0173
192.0695,80.9900
192.0695,80.9900
191.9876,80.9560
191.9876,80.9560
191.9057,80.9221
191.9057,80.9221
191.7317,80.8875
191.7317,80.8875
191.7317,80.8875
148.5064,80.8875
148.4393,80.8678
148.4187,80.8512
146.9117,79.3442
146.8782,79.2829
146.8832,79.2132
146.9251,79.1572
146.9905,79.1328
146.9994,79.1325
164.5537,79.1325
164.5537,79.1325
164.7277,79.0979
164.8275,79.0565
164.8915,79.0300
164.9791,78.9715
164.9800,78.9709
164.9800,78.9709
164.9800,78.9709
165.0390,78.9315
168.3395,75.6310
168.3789,75.5720
168.4380,75.4835
168.4720,75.4016
168.5059,75.3197
168.5405,75.1457
168.5405,74.9683
168.5405,67.1008
168.5602,67.0337
168.5768,67.0131
168.6197,66.9702
168.6785,66.9114
168.8084,66.7258
168.8630,66.6822
168.9325,66.6750
168.9949,66.7065
169.0116,66.7258
169.1415,66.9114
169.1415,66.9114
169.3086,67.0785
169.3946,67.1387
169.5022,67.2140
169.5022,67.2140
169.5022,67.2140
169.7163,67.3139
169.7163,67.3139
169.7163,67.3139
169.7713,67.3286
169.9446,67.3751
170.1210,67.3905
170.1800,67.3957
170.1800,67.3957
170.1800,67.3957
170.2390,67.3905
170.4154,67.3751
170.6437,67.3139
170.8578,67.2140
171.0514,67.0785
171.2185,66.9114
171.3484,66.7258
171.4030,66.6822
171.4725,66.6750
171.5349,66.7065
171.5516,66.7258
171.6815,66.9114
171.6815,66.9114
171.8486,67.0785
171.9346,67.1387
172.0422,67.2140
172.0422,67.2140
172.0422,67.2140
172.2563,67.3139
172.2563,67.3139
172.2563,67.3139
172.3113,67.3286
172.4846,67.3751
172.6610,67.3905
172.7200,67.3957
172.7200,67.3957
172.7200,67.3957
172.7790,67.3905
172.9554,67.3751
173.1837,67.3139
173.3978,67.2140
173.5914,67.0785
173.7585,66.9114
173.8884,66.7258
173.9430,66.6822
174.0125,66.6750
174.0749,66.7065
174.0916,66.7258
174.2215,66.9114
174.2215,66.9114
174.3886,67.0785
174.4746,67.1387
174.5822,67.2140
174.5822,67.2140
174.5822,67.2140
174.7963,67.3139
174.7963,67.3139
174.7963,67.3139
174.8513,67.3286
175.0246,67.3751
175.2010,67.3905
175.2600,67.3957
175.2600,67.3957
175.2600,67.3957
175.3190,67.3905
175.4954,67.3751
175.7237,67.3139
175.9378,67.2140
176.1314,67.0785
176.2985,66.9114
176.4284,66.7258
176.4830,66.6822
176.5525,66.6750
176.6149,66.7065
176.6316,66.7258
176.7615,66.9114
176.7615,66.9114
176.9286,67.0785
177.0146,67.1387
177.1222,67.2140
177.1222,67.2140
177.1222,67.2140
177.3363,67.3139
177.3363,67.3139
177.3363,67.3139
177.3913,67.3286
177.5646,67.3751
177.7410,67.3905
177.8000,67.3957
177.8000,67.3957
177.8000,67.3957
177.8590,67.3905
178.0354,67.3751
178.2637,67.3139
178.4778,67.2140
178.6714,67.0785
178.8385,66.9114
178.9684,66.7258
179.0230,66.6822
179.0925,66.6750
179.1549,66.7065
179.1716,66.7258
179.3015,66.9114
179.3015,66.9114
179.4686,67.0785
179.5546,67.1387
179.6622,67.2140
179.6622,67.2140
179.6622,67.2140
179.8763,67.3139
179.8763,67.3139
179.8763,67.3139
179.9313,67.3286
180.1046,67.3751
180.2810,67.3905
180.3400,67.3957
180.3400,67.3957
180.3400,67.3957
180.3990,67.3905
180.5754,67.3751
180.8037,67.3139
181.0178,67.2140
181.2114,67.0785
181.3785,66.9114
181.5084,66.7258
181.5630,66.6822
181.6325,66.6750
181.6949,66.7065
181.7116,66.7258
181.8415,66.9114
181.8415,66.9114
182.0086,67.0785
182.0946,67.1387
182.2022,67.2140
182.2022,67.2140
182.2022,67.2140
182.4163,67.3139
182.4163,67.3139
182.4163,67.3139
182.4713,67.3286
182.6446,67.3751
182.8210,67.3905
182.8800,67.3957
182.8800,67.3957
182.8800,67.3957
182.9390,67.3905
183.1154,67.3751
183.3437,67.3139
183.5578,67.2140
183.7514,67.0785
183.9185,66.9114
184.0484,66.7258
184.1030,66.6822
184.1725,66.6750
Z" /> 
</g> 
</svg>
